<svg xmlns="http://www.w3.org/2000/svg" xmlns:xlink="http://www.w3.org/1999/xlink" width="85" zoomAndPan="magnify" viewBox="0 0 63.75 63.749998" height="85" preserveAspectRatio="xMidYMid meet" version="1.0"><path stroke-linecap="round" transform="matrix(-6.715695, -0.000000000000000822, 0.000000000000000827, -6.749999, 57.373084, 50.081247)" fill="none" stroke-linejoin="miter" d="M 0.499942 -0.000116144 L 5.307361 -0.000116144 " stroke="rgb(100%, 100%, 100%)" stroke-width="1" stroke-opacity="1" stroke-miterlimit="4"/><path fill="rgb(100%, 100%, 100%)" d="M 10.875 10.292969 C 8.390625 10.292969 6.375 12.308594 6.375 14.792969 C 6.375 17.277344 8.390625 19.292969 10.875 19.292969 C 13.359375 19.292969 15.375 17.277344 15.375 14.792969 C 15.375 12.308594 13.359375 10.292969 10.875 10.292969 " fill-opacity="1" fill-rule="nonzero"/><path stroke-linecap="round" transform="matrix(-6.715695, -0.000000000000000822, 0.000000000000000827, -6.749999, 57.373084, 14.76392)" fill="none" stroke-linejoin="miter" d="M 0.499942 -0.000252535 L 5.307361 -0.000252535 " stroke="rgb(100%, 100%, 100%)" stroke-width="1" stroke-opacity="1" stroke-miterlimit="4"/><path fill="rgb(100%, 100%, 100%)" d="M 10.875 45.609375 C 8.390625 45.609375 6.375 47.625 6.375 50.109375 C 6.375 52.597656 8.390625 54.609375 10.875 54.609375 C 13.359375 54.609375 15.375 52.597656 15.375 50.109375 C 15.375 47.625 13.359375 45.609375 10.875 45.609375 " fill-opacity="1" fill-rule="nonzero"/><path fill="rgb(100%, 100%, 100%)" d="M 10.875 27.40625 C 8.390625 27.40625 6.375 29.417969 6.375 31.90625 C 6.375 34.390625 8.390625 36.40625 10.875 36.40625 C 13.359375 36.40625 15.375 34.390625 15.375 31.90625 C 15.375 29.417969 13.359375 27.40625 10.875 27.40625 " fill-opacity="1" fill-rule="nonzero"/><path stroke-linecap="round" transform="matrix(-6.715695, -0.000000000000000822, 0.000000000000000827, -6.749999, 57.373084, 31.874996)" fill="none" stroke-linejoin="miter" d="M 0.499942 -0.000000533796 L 5.307361 -0.000000533796 " stroke="rgb(100%, 100%, 100%)" stroke-width="1" stroke-opacity="1" stroke-miterlimit="4"/></svg>