<svg xmlns="http://www.w3.org/2000/svg" xmlns:xlink="http://www.w3.org/1999/xlink" width="340" zoomAndPan="magnify" viewBox="0 0 255 217.499994" height="290" preserveAspectRatio="xMidYMid meet" version="1.0"><defs><clipPath id="id1"><path d="M 27 159 L 228 159 L 228 217 L 27 217 Z M 27 159 " clip-rule="nonzero"/></clipPath><clipPath id="id2"><path d="M 0.292969 0 L 254.707031 0 L 254.707031 190 L 0.292969 190 Z M 0.292969 0 " clip-rule="nonzero"/></clipPath></defs><g clip-path="url(#id1)"><path fill="rgb(24.708557%, 29.40979%, 29.019165%)" d="M 216.183594 217.117188 L 38.8125 217.117188 C 32.839844 217.117188 27.976562 212.242188 27.976562 206.257812 L 27.976562 170.359375 C 27.976562 164.375 32.839844 159.5 38.8125 159.5 L 216.183594 159.5 C 222.152344 159.5 227.019531 164.375 227.019531 170.359375 L 227.019531 206.257812 C 227.019531 212.242188 222.152344 217.117188 216.183594 217.117188 " fill-opacity="1" fill-rule="nonzero"/></g><path fill="rgb(50.979614%, 59.999084%, 59.21936%)" d="M 235.621094 205.53125 L 19.335938 205.53125 C 13.367188 205.53125 8.5 200.65625 8.5 194.675781 L 8.5 158.773438 C 8.5 152.792969 13.367188 147.917969 19.335938 147.917969 L 235.621094 147.917969 C 241.589844 147.917969 246.453125 152.792969 246.453125 158.773438 L 246.453125 194.675781 C 246.453125 200.65625 241.589844 205.53125 235.621094 205.53125 " fill-opacity="1" fill-rule="nonzero"/><g clip-path="url(#id2)"><path fill="rgb(85.099792%, 98.039246%, 97.24884%)" d="M 243.867188 189.316406 L 11.132812 189.316406 C 5.160156 189.316406 0.296875 184.445312 0.296875 178.46875 L 0.296875 10.847656 C 0.296875 4.871094 5.160156 0 11.132812 0 L 243.867188 0 C 249.839844 0 254.703125 4.871094 254.703125 10.847656 L 254.703125 178.46875 C 254.703125 184.445312 249.839844 189.316406 243.867188 189.316406 " fill-opacity="1" fill-rule="nonzero"/></g></svg>