<svg xmlns="http://www.w3.org/2000/svg" xmlns:xlink="http://www.w3.org/1999/xlink" width="85" zoomAndPan="magnify" viewBox="0 0 63.75 63.749998" height="85" preserveAspectRatio="xMidYMid meet" version="1.0"><defs><clipPath id="id1"><path d="M 0 0 L 63.5 0 L 63.5 63.5 L 0 63.5 Z M 0 0 " clip-rule="nonzero"/></clipPath></defs><g clip-path="url(#id1)"><path fill="rgb(0%, 0%, 0%)" d="M 62.894531 48.414062 L 47.988281 38.476562 C 47.753906 38.320312 47.496094 38.238281 47.21875 38.222656 C 46.9375 38.210938 46.675781 38.269531 46.429688 38.402344 L 38.132812 42.832031 L 21.171875 25.578125 L 25.195312 19.058594 C 25.34375 18.820312 25.417969 18.558594 25.421875 18.277344 C 25.425781 17.992188 25.355469 17.730469 25.210938 17.488281 L 15.3125 0.765625 C 15.199219 0.574219 15.050781 0.417969 14.871094 0.289062 C 14.6875 0.164062 14.488281 0.0820312 14.269531 0.0429688 C 14.050781 0.00390625 13.835938 0.0117188 13.621094 0.0703125 C 13.40625 0.125 13.214844 0.222656 13.042969 0.363281 L 0.65625 10.515625 C 0.222656 10.871094 0.0429688 11.328125 0.113281 11.882812 C 0.195312 12.519531 2.300781 27.667969 19.78125 45.144531 C 37.296875 62.660156 51.273438 63.664062 51.863281 63.699219 L 51.949219 63.699219 C 52.433594 63.699219 52.828125 63.511719 53.132812 63.132812 L 63.234375 50.632812 C 63.367188 50.46875 63.460938 50.28125 63.519531 50.074219 C 63.574219 49.867188 63.585938 49.660156 63.554688 49.449219 C 63.519531 49.238281 63.449219 49.042969 63.332031 48.863281 C 63.21875 48.683594 63.070312 48.53125 62.894531 48.414062 Z M 62.894531 48.414062 " fill-opacity="1" fill-rule="nonzero"/></g></svg>