<svg xmlns="http://www.w3.org/2000/svg" version="1.1" xmlns:xlink="http://www.w3.org/1999/xlink" xmlns:svgjs="http://svgjs.com/svgjs" width="200" height="100" preserveAspectRatio="none" viewBox="0 0 200 100"><g mask="url(&quot;#SvgjsMask1499&quot;)" fill="none"><rect width="200" height="100" x="0" y="0" fill="url(#SvgjsLinearGradient1500)"></rect><path d="M51.77 17.77L57.21 17.77L57.21 23.21L51.77 23.21z" fill="rgba(113, 113, 113, 1)"></path><path d="M64.57 56.59 a1.38 1.38 0 1 0 2.76 0 a1.38 1.38 0 1 0 -2.76 0z" fill="rgba(187, 218, 216, 1)"></path><path d="M79.29 69.25 a5.83 5.83 0 1 0 11.66 0 a5.83 5.83 0 1 0 -11.66 0z" stroke="rgba(113, 113, 113, 1)"></path><path d="M188.64 98.17 a8.72 8.72 0 1 0 17.44 0 a8.72 8.72 0 1 0 -17.44 0z" stroke="rgba(187, 218, 216, 1)"></path><path d="M13.1 26.26a1.28 1.28 0 1 0 2.56-0.18z" stroke="rgba(187, 218, 216, 1)"></path><path d="M0.48 10.77 a5.71 5.71 0 1 0 11.42 0 a5.71 5.71 0 1 0 -11.42 0z" stroke="rgba(187, 218, 216, 1)"></path><path d="M39.57 60.48L44.1 60.48L44.1 65.01L39.57 65.01z" fill="rgba(187, 218, 216, 1)"></path><path d="M193.91 56.08L199.54 56.08L199.54 59.44L193.91 59.44z" fill="rgba(113, 113, 113, 1)"></path><path d="M185.1 69.86L192.16 69.86L192.16 76.92L185.1 76.92z" stroke="rgba(187, 218, 216, 1)"></path><path d="M190.88 9.93L192.04 9.93L192.04 11.09L190.88 11.09z" fill="rgba(187, 218, 216, 1)"></path><path d="M94.79 69.38L97.66 69.38L97.66 76.63L94.79 76.63z" stroke="rgba(187, 218, 216, 1)"></path><path d="M31.84 87.8L32.71 87.8L32.71 88.67L31.84 88.67z" fill="rgba(187, 218, 216, 1)"></path><path d="M36.41 32.38L42.69 32.38L42.69 38.66L36.41 38.66z" fill="rgba(187, 218, 216, 1)"></path><path d="M120.57 45.4L129.53 45.4L129.53 49.8L120.57 49.8z" stroke="rgba(187, 218, 216, 1)"></path><path d="M17.34 32.8L20.72 32.8L20.72 36.18L17.34 36.18z" stroke="rgba(113, 113, 113, 1)"></path><path d="M157.5 45.6L158.95 45.6L158.95 47.05L157.5 47.05z" stroke="rgba(187, 218, 216, 1)"></path><path d="M44.48 1.78 a6.12 6.12 0 1 0 12.24 0 a6.12 6.12 0 1 0 -12.24 0z" stroke="rgba(113, 113, 113, 1)"></path><path d="M28.07 100.51a1.15 1.15 0 1 0-1.03-2.06z" fill="rgba(113, 113, 113, 1)"></path><path d="M144.82 6.23L154.58 6.23L154.58 6.92L144.82 6.92z" stroke="rgba(187, 218, 216, 1)"></path><path d="M158.08 54.48 a1.26 1.26 0 1 0 2.52 0 a1.26 1.26 0 1 0 -2.52 0z" stroke="rgba(187, 218, 216, 1)"></path><path d="M60.82 38.37L68.48 38.37L68.48 46.03L60.82 46.03z" stroke="rgba(113, 113, 113, 1)"></path><path d="M177.52 7.78L179.89 7.78L179.89 10.15L177.52 10.15z" fill="rgba(187, 218, 216, 1)"></path><path d="M193.89 83.47a2.83 2.83 0 1 0 5.4-1.71z" stroke="rgba(113, 113, 113, 1)"></path><path d="M95.25 33.65 a2.74 2.74 0 1 0 5.48 0 a2.74 2.74 0 1 0 -5.48 0z" fill="rgba(187, 218, 216, 1)"></path><path d="M71.18 96.35 a0.56 0.56 0 1 0 1.12 0 a0.56 0.56 0 1 0 -1.12 0z" stroke="rgba(113, 113, 113, 1)"></path></g><defs><mask id="SvgjsMask1499"><rect width="200" height="100" fill="#ffffff"></rect></mask><linearGradient x1="12.5%" y1="-25%" x2="87.5%" y2="125%" gradientUnits="userSpaceOnUse" id="SvgjsLinearGradient1500"><stop stop-color="rgba(56, 56, 56, 1)" offset="0"></stop><stop stop-color="rgba(17, 17, 17, 1)" offset="1"></stop></linearGradient></defs></svg>