<svg xmlns="http://www.w3.org/2000/svg" xmlns:xlink="http://www.w3.org/1999/xlink" width="200" zoomAndPan="magnify" viewBox="0 0 150 149.999998" height="200" preserveAspectRatio="xMidYMid meet" version="1.0"><defs><clipPath id="id1"><path d="M 0 18.671875 L 150 18.671875 L 150 131.171875 L 0 131.171875 Z M 0 18.671875 " clip-rule="nonzero"/></clipPath><clipPath id="id2"><path d="M 0 18.671875 L 78 18.671875 L 78 97 L 0 97 Z M 0 18.671875 " clip-rule="nonzero"/></clipPath><clipPath id="id3"><path d="M 72 18.671875 L 150 18.671875 L 150 97 L 72 97 Z M 72 18.671875 " clip-rule="nonzero"/></clipPath></defs><g clip-path="url(#id1)"><path fill="rgb(100%, 100%, 100%)" d="M 3.285156 18.953125 L 146.714844 18.953125 C 148.371094 18.953125 149.714844 20.292969 149.714844 21.914062 L 149.714844 128.210938 C 149.714844 129.832031 148.371094 131.171875 146.714844 131.171875 L 3.285156 131.171875 C 1.628906 131.171875 0.285156 129.832031 0.285156 128.210938 L 0.285156 21.914062 C 0.285156 20.292969 1.628906 18.953125 3.285156 18.953125 Z M 143.714844 24.910156 L 6.285156 24.910156 L 6.285156 125.214844 L 143.714844 125.214844 Z M 143.714844 24.910156 " fill-opacity="1" fill-rule="nonzero"/></g><g clip-path="url(#id2)"><path fill="rgb(100%, 100%, 100%)" d="M 1.167969 24.027344 C 0.00390625 22.863281 0.00390625 20.996094 1.167969 19.832031 C 2.332031 18.671875 4.203125 18.671875 5.402344 19.796875 L 77.117188 91.414062 C 78.28125 92.578125 78.28125 94.445312 77.117188 95.609375 C 75.953125 96.773438 74.082031 96.773438 72.882812 95.644531 Z M 1.167969 24.027344 " fill-opacity="1" fill-rule="nonzero"/></g><g clip-path="url(#id3)"><path fill="rgb(100%, 100%, 100%)" d="M 144.597656 19.796875 C 145.796875 18.671875 147.667969 18.671875 148.832031 19.832031 C 149.996094 20.996094 149.996094 22.863281 148.832031 24.027344 L 77.117188 95.644531 C 75.953125 96.773438 74.046875 96.773438 72.882812 95.609375 C 71.71875 94.445312 71.71875 92.578125 72.917969 91.414062 Z M 144.597656 19.796875 " fill-opacity="1" fill-rule="nonzero"/></g></svg>