<svg xmlns="http://www.w3.org/2000/svg" xmlns:xlink="http://www.w3.org/1999/xlink" width="443" zoomAndPan="magnify" viewBox="0 0 332.25 37.5" height="50" preserveAspectRatio="xMidYMid meet" version="1.0"><defs><clipPath id="id1"><path d="M 10 0 L 321.503906 0 L 321.503906 36.808594 L 10 36.808594 Z M 10 0 " clip-rule="nonzero"/></clipPath><clipPath id="id2"><path d="M 275.246094 10.535156 C 276.015625 10.585938 277.113281 10.394531 277.359375 10.820312 C 276.414062 10.511719 275.128906 11.390625 275.246094 10.535156 Z M 285.679688 11.058594 C 286.339844 10.820312 288.042969 10.832031 287.605469 10.3125 C 286.414062 10.855469 286.058594 10.429688 285.609375 10.738281 C 286.023438 10.691406 285.859375 10.878906 285.679688 11.058594 Z M 291.59375 11.140625 C 291.0625 11.855469 288.996094 11.25 288.996094 12.03125 C 290.035156 11.78125 291.464844 11.617188 291.960938 11.238281 C 291.9375 11.058594 291.710938 10.855469 291.59375 11.140625 Z M 11.144531 6.597656 C 13.554688 7.15625 14.144531 4.605469 16.007812 4.082031 C 15.949219 3.453125 14.238281 4.109375 14.769531 3.441406 C 16.964844 4.121094 18.59375 3.492188 20.386719 3.300781 C 22.546875 3.691406 22.9375 4.464844 24.140625 5.054688 C 25.769531 5.09375 27.03125 4.984375 28.355469 5.007812 C 29.6875 5.019531 31.082031 5.210938 33.015625 5.660156 C 33.914062 5.875 34.550781 6.148438 35.292969 6.3125 C 35.648438 6.386719 35.910156 6.359375 36.085938 6.3125 C 36.261719 6.265625 36.34375 6.207031 36.355469 6.207031 C 36.746094 6.277344 37.277344 6.753906 37.9375 6.871094 C 39.011719 7.074219 40.109375 6.5625 40.746094 6.621094 C 41.339844 6.679688 42.835938 7.394531 43.320312 7.5 C 45.316406 7.949219 47.429688 8.082031 49.660156 8.496094 C 52.796875 9.019531 56.101562 9.574219 59.527344 10.15625 C 62.949219 10.75 66.476562 11.367188 70.054688 11.996094 C 73.652344 12.507812 77.289062 13.015625 80.914062 13.527344 C 82.730469 13.761719 84.535156 14 86.332031 14.238281 C 87.226562 14.355469 88.125 14.476562 89.007812 14.570312 C 89.90625 14.652344 90.792969 14.722656 91.675781 14.808594 C 95.558594 15.128906 99.679688 15.484375 103.421875 15.945312 C 104.390625 16.066406 105.355469 16.183594 106.324219 16.300781 C 107.292969 16.421875 108.261719 16.539062 109.226562 16.609375 C 111.164062 16.777344 113.097656 16.929688 115.035156 17.097656 C 118.90625 17.417969 122.765625 17.714844 126.648438 17.988281 C 130.53125 18.199219 134.425781 18.292969 138.34375 18.425781 C 140.304688 18.484375 142.277344 18.53125 144.246094 18.589844 C 145.238281 18.613281 146.21875 18.652344 147.210938 18.652344 C 148.199219 18.640625 149.191406 18.628906 150.183594 18.628906 C 150.609375 18.628906 153.832031 18.886719 156.25 18.875 C 158.117188 18.875 160.027344 18.863281 161.964844 18.863281 C 162.929688 18.863281 163.910156 18.863281 164.902344 18.851562 C 165.398438 18.851562 165.894531 18.851562 166.390625 18.839844 C 166.886719 18.828125 167.390625 18.804688 167.886719 18.792969 C 171.902344 18.664062 176.03125 18.519531 180.257812 18.378906 C 181.308594 18.34375 182.371094 18.308594 183.445312 18.269531 C 184.507812 18.234375 185.582031 18.222656 186.65625 18.140625 C 188.804688 18.011719 190.960938 17.867188 193.144531 17.726562 C 195.328125 17.59375 197.511719 17.453125 199.71875 17.320312 C 200.816406 17.25 201.925781 17.191406 203.023438 17.121094 C 204.132812 17.0625 205.230469 16.988281 206.339844 16.882812 C 215.183594 16.039062 224.140625 15.4375 232.863281 14.332031 C 235.046875 14.09375 237.21875 13.859375 239.378906 13.621094 C 241.539062 13.382812 243.6875 13.183594 245.796875 12.875 C 250.035156 12.292969 254.191406 11.757812 258.25 11.25 C 258.546875 11.519531 259.265625 11.214844 258.652344 11.6875 C 259.230469 11.664062 259.265625 11.472656 259.265625 11.273438 C 260.964844 11.296875 261.058594 11.390625 262.699219 11.4375 C 266.511719 11.425781 272.261719 10.335938 274.609375 10.976562 C 271.683594 11.199219 268.542969 11.378906 265.378906 11.628906 C 264.589844 11.699219 263.796875 11.769531 263.019531 11.839844 C 262.226562 11.902344 261.4375 11.960938 260.660156 12.019531 C 259.089844 12.160156 257.554688 12.328125 256.054688 12.566406 C 257.957031 12.839844 260.550781 12.636719 263.054688 12.542969 C 265.542969 12.363281 267.941406 12.28125 269.453125 12.898438 C 271.386719 12.054688 272.660156 12.875 273.757812 11.960938 C 274.328125 13.207031 278.953125 11.175781 280.875 11.355469 C 281.125 12.019531 279.460938 11.757812 278.90625 11.878906 C 279.402344 12.066406 279.863281 12.375 280.996094 11.996094 C 280.5 12.210938 280.59375 12.601562 279.753906 12.71875 C 281.394531 12.910156 282.46875 12.863281 283.496094 12.671875 C 284.511719 12.492188 285.480469 12.246094 286.917969 12.136719 C 286.871094 12.328125 286.28125 12.386719 286.316406 12.601562 C 288.832031 12.46875 292.84375 11.890625 295.664062 10.785156 C 295.6875 11.140625 294.898438 11.308594 294.074219 11.460938 C 294.449219 11.890625 297.402344 10.878906 295.914062 11.914062 C 298.34375 11.390625 297.882812 11.164062 300.210938 10.832031 C 297.882812 11.652344 297.507812 12.175781 294.675781 12.671875 C 295.003906 12.851562 295.796875 12.671875 296.410156 12.636719 C 296.007812 13.230469 294.910156 12.8125 294.074219 13.132812 C 298.191406 12.945312 302.78125 12.089844 307.246094 11.023438 C 306.667969 11.296875 305.664062 11.664062 304.484375 12.019531 C 303.890625 12.199219 303.265625 12.386719 302.617188 12.53125 C 301.96875 12.671875 301.308594 12.800781 300.660156 12.910156 C 301.53125 12.910156 302.628906 12.789062 303.761719 12.542969 C 304.894531 12.316406 306.0625 12.054688 307.101562 11.902344 C 305.179688 12.742188 307.550781 12.222656 308.589844 12.210938 C 307.269531 12.554688 306.0625 12.863281 304.929688 13.148438 C 304.363281 13.289062 303.820312 13.429688 303.300781 13.574219 C 302.769531 13.703125 302.261719 13.8125 301.757812 13.929688 C 299.761719 14.402344 297.96875 14.820312 296.148438 15.257812 C 294.332031 15.707031 292.480469 16.160156 290.355469 16.679688 C 289.292969 16.941406 288.160156 17.226562 286.933594 17.523438 C 286.316406 17.679688 285.679688 17.832031 285.007812 18 C 284.347656 18.164062 283.652344 18.332031 282.917969 18.484375 C 283.945312 18.355469 284.796875 18.222656 285.597656 18.082031 C 286.402344 17.9375 287.144531 17.761719 287.957031 17.441406 C 288.359375 17.308594 289.210938 17.652344 288.394531 17.855469 C 288.65625 18.082031 289.894531 16.964844 290.4375 17.582031 C 289.871094 18.28125 288.335938 18.757812 286.636719 19.183594 C 285.785156 19.398438 284.902344 19.613281 284.085938 19.824219 C 283.261719 20.015625 282.503906 20.226562 281.914062 20.488281 C 282.105469 20.714844 283 20.441406 282.71875 21.011719 C 284.179688 20.738281 282.09375 20.371094 284.324219 20.226562 C 283.035156 21.78125 279.96875 21.652344 278.007812 22.019531 C 276.320312 22.339844 274.398438 22.96875 271.929688 23.265625 C 273.394531 23.667969 277.003906 22.542969 279.449219 22.257812 C 280.085938 22.269531 279.285156 22.46875 278.800781 22.542969 C 276.59375 23.039062 273.546875 23.703125 270.550781 24.332031 C 267.550781 24.960938 264.613281 25.589844 262.570312 25.851562 C 263.480469 26.113281 264.421875 26.027344 265.519531 25.78125 C 266.617188 25.519531 267.882812 25.140625 269.429688 24.878906 C 269.40625 25.082031 268.824219 25.128906 268.4375 25.222656 C 270.597656 25.019531 273.925781 24.453125 277.40625 23.726562 C 279.152344 23.371094 280.9375 22.96875 282.636719 22.566406 C 283.484375 22.351562 284.324219 22.171875 285.101562 21.9375 C 285.894531 21.699219 286.648438 21.472656 287.34375 21.25 C 289.03125 20.703125 290.214844 20.027344 291.605469 19.683594 C 293.058594 19.304688 296.125 18.757812 297.496094 17.59375 C 299.679688 17.476562 300.328125 16.976562 301.769531 16.183594 C 301.898438 16.445312 301.285156 16.71875 301.875 16.65625 C 302.996094 16.574219 302.226562 16.039062 302.734375 15.804688 C 303.335938 15.804688 304.835938 15.992188 305.449219 15.328125 C 305.402344 16.160156 307.777344 14.773438 309.757812 14.09375 C 309.003906 14.011719 307.574219 14.488281 307.269531 14.035156 C 310.359375 12.742188 313.429688 12.613281 316.933594 11.652344 C 314.527344 12.671875 310.597656 13.289062 307.929688 13.871094 C 308.449219 14.332031 310.394531 13.632812 311.71875 13.441406 C 304.929688 16.929688 294.980469 20.324219 284.3125 23.46875 C 278.953125 24.878906 273.40625 26.195312 267.988281 27.347656 C 265.285156 27.960938 262.582031 28.355469 259.960938 28.769531 C 257.34375 29.171875 254.78125 29.527344 252.335938 29.8125 C 252.289062 28.863281 248.171875 29.183594 245.316406 29.503906 C 246.082031 29.089844 245.539062 28.996094 246.210938 28.390625 C 246.800781 28.53125 248.183594 27.960938 249.621094 27.890625 C 248.925781 27.738281 247.425781 27.960938 245.75 28.257812 C 244.0625 28.519531 242.175781 28.804688 240.710938 28.875 C 240.699219 29.230469 241.9375 28.816406 242.445312 28.839844 C 242.917969 29.066406 239.625 29.328125 239.070312 29.71875 C 241.527344 29.871094 242.613281 29.5625 244.582031 29.253906 C 244.253906 30.226562 237.84375 29.800781 236.039062 30.546875 C 235.164062 30.5 235.8125 30.226562 236.472656 30.132812 C 233.265625 30.289062 229.949219 30.5 227.398438 31.023438 C 228.414062 31.011719 231.566406 30.75 234.621094 30.371094 C 232.652344 31.332031 228.390625 30.953125 225.027344 31.59375 C 224.824219 31.09375 225.710938 31.023438 226.703125 30.941406 C 225.828125 30.574219 224.128906 31.128906 224.339844 31.652344 C 223.230469 31.496094 221.734375 31.710938 220.90625 32.089844 C 226.015625 31.460938 231.613281 31.890625 236.792969 31.117188 C 236.664062 30.90625 235.917969 31.082031 235.402344 31.105469 C 235.894531 30.453125 239.1875 30.738281 241.914062 30.203125 C 241.679688 30.382812 241.324219 30.523438 240.925781 30.644531 C 242.023438 30.75 243.628906 30.535156 245.230469 30.324219 C 246.835938 30.085938 248.441406 29.800781 249.539062 29.871094 C 248.738281 29.992188 247.933594 30.121094 247.144531 30.242188 C 246.339844 30.371094 245.550781 30.488281 244.75 30.585938 C 243.144531 30.785156 241.550781 30.988281 239.945312 31.1875 C 236.746094 31.59375 233.558594 31.984375 230.359375 32.339844 C 228.753906 32.519531 227.160156 32.695312 225.558594 32.839844 C 223.953125 32.945312 222.335938 33.039062 220.71875 33.121094 C 217.484375 33.277344 214.238281 33.382812 210.957031 33.394531 C 212.796875 32.566406 217.046875 32.636719 219.527344 32.042969 C 218.308594 31.925781 213.894531 32.292969 212.277344 32.457031 C 214.542969 31.472656 219.113281 32.125 222.242188 31.320312 C 218.261719 31.519531 214.484375 31.734375 210.792969 31.984375 C 208.9375 32.089844 207.109375 32.257812 205.28125 32.351562 C 203.449219 32.433594 201.632812 32.53125 199.792969 32.613281 C 196.121094 32.800781 192.425781 33.027344 188.566406 33.300781 C 187.597656 33.359375 186.632812 33.453125 185.640625 33.492188 C 184.648438 33.539062 183.65625 33.574219 182.640625 33.621094 C 180.625 33.714844 178.546875 33.824219 176.398438 33.929688 C 179.914062 33.988281 182.820312 33.894531 185.546875 33.773438 C 188.273438 33.609375 190.820312 33.359375 193.640625 33.242188 C 193.5 33.453125 193.21875 33.597656 192.625 33.621094 C 194.457031 33.609375 197.195312 33.429688 199.96875 33.277344 C 201.347656 33.195312 202.742188 33.121094 204.027344 33.074219 C 204.675781 33.050781 205.292969 33.039062 205.871094 33.039062 C 206.449219 33.027344 206.992188 33.003906 207.476562 33.015625 C 207.355469 33.207031 206.871094 33.265625 206.316406 33.289062 C 205.761719 33.3125 205.136719 33.277344 204.726562 33.359375 C 205.136719 33.40625 205.574219 33.441406 206.035156 33.46875 C 206.496094 33.480469 206.96875 33.46875 207.464844 33.453125 C 208.453125 33.417969 209.515625 33.359375 210.613281 33.265625 C 206.210938 34.179688 201.726562 34.570312 197.148438 35.019531 C 194.859375 35.246094 192.542969 35.472656 190.195312 35.707031 C 189.027344 35.839844 187.835938 35.96875 186.644531 36.101562 C 185.449219 36.21875 184.246094 36.335938 183.042969 36.457031 C 182.890625 36.207031 181.945312 36.335938 182.335938 35.816406 C 176.976562 35.851562 171.558594 35.96875 166.140625 36.101562 C 160.734375 36.078125 155.328125 36.054688 150.03125 36.027344 C 148.707031 36.015625 147.386719 36.027344 146.078125 35.992188 C 144.765625 35.945312 143.457031 35.886719 142.15625 35.839844 C 139.5625 35.71875 137 35.601562 134.484375 35.496094 C 131.972656 35.363281 129.492188 35.222656 127.085938 35.066406 C 124.667969 34.878906 122.316406 34.59375 120.027344 34.332031 C 119.320312 34.320312 119.320312 34.722656 118.609375 34.710938 C 115.933594 34.273438 113.085938 33.988281 110.160156 33.785156 C 108.695312 33.667969 107.199219 33.621094 105.699219 33.492188 C 104.1875 33.371094 102.675781 33.242188 101.144531 33.121094 C 98.074219 32.886719 94.96875 32.625 91.890625 32.292969 C 90.34375 32.125 88.808594 31.9375 87.285156 31.710938 C 85.765625 31.472656 84.265625 31.152344 82.777344 30.820312 C 79.128906 29.992188 75.058594 30.324219 72.191406 28.972656 C 67.292969 28.566406 60.976562 27.59375 54.992188 26.527344 C 53.496094 26.253906 52.019531 25.96875 50.601562 25.660156 C 49.894531 25.507812 49.199219 25.351562 48.515625 25.199219 C 47.828125 25.042969 47.167969 24.878906 46.519531 24.6875 C 43.945312 23.953125 41.679688 23.171875 39.957031 22.351562 C 39.046875 22.160156 38.152344 21.972656 37.242188 21.78125 C 36.605469 21.320312 36.40625 20.761719 35.414062 20.394531 C 33.5 20.667969 31.140625 19.46875 28.378906 18.578125 C 27.90625 18.578125 27.683594 18.769531 27.5625 19.054688 C 28.945312 18.757812 28.378906 19.253906 30.609375 19.71875 C 30.867188 19.980469 27.953125 19.457031 26.820312 19.207031 C 27.730469 19.019531 26.300781 18.105469 27.707031 18.414062 C 26.066406 17.441406 23.691406 16.621094 20.46875 15.96875 C 20.894531 15.507812 21.226562 16.136719 21.886719 15.980469 C 20.210938 15.117188 19.207031 13.917969 16.683594 14.035156 C 17.496094 12.945312 12.492188 11.9375 13.730469 10.277344 C 13.871094 9.945312 12.5625 9.90625 12.113281 9.707031 C 12.761719 9.03125 9.847656 7.902344 11.144531 6.597656 Z M 286.105469 18.496094 C 287.039062 17.972656 287.804688 18.367188 288.054688 17.75 C 287.003906 18 285.976562 17.75 286.105469 18.496094 Z M 302.476562 13.453125 C 303.386719 13.207031 304.28125 12.800781 304.175781 12.777344 C 303.066406 13.0625 301.957031 13.289062 300.835938 13.527344 C 300.683594 13.871094 301.566406 13.703125 302.476562 13.453125 Z M 247.710938 13.621094 C 248.324219 13.824219 249.800781 13.503906 250.023438 13.121094 C 249.351562 13.324219 247.804688 13.242188 247.710938 13.621094 Z M 243.6875 14.046875 C 243.675781 14.710938 246.304688 13.964844 246.351562 13.65625 C 244.867188 13.871094 244.902344 14.144531 243.6875 14.046875 Z M 27.777344 18.09375 C 29.324219 18.542969 32.59375 19.921875 32.910156 18.863281 C 31.011719 18.460938 28.910156 17.949219 27.777344 18.09375 Z M 284.6875 11.273438 C 284.5 10.738281 282.847656 11.332031 282.542969 10.894531 C 282.566406 11.199219 281.457031 11.199219 281.632812 11.558594 C 282.257812 11.664062 283.554688 11.199219 284.6875 11.273438 Z M 309.390625 8.128906 C 311.847656 7.441406 314.375 7.714844 316.414062 6.730469 C 314.65625 7.296875 311.5625 7.121094 309.390625 8.128906 Z M 244.476562 31.09375 C 243.058594 31.082031 241.574219 31.285156 240.371094 31.722656 C 241.125 31.972656 244.417969 31.914062 244.476562 31.09375 Z M 321.503906 5.980469 C 320.699219 6.183594 319.957031 6.359375 319.1875 6.550781 C 314.882812 7.679688 319.671875 6.835938 321.503906 5.980469 Z M 14.390625 13.300781 C 15.773438 13.871094 16.328125 14.617188 17.460938 15.234375 C 17.96875 14.960938 15.148438 13.300781 14.390625 13.300781 Z M 296.859375 16.21875 C 296.398438 16.125 294.144531 16.457031 293.835938 16.859375 C 295.265625 16.632812 296.183594 16.632812 296.859375 16.21875 Z M 299.914062 15.734375 C 300.199219 15.328125 301.96875 15.589844 302.191406 14.914062 C 301.273438 15.054688 298.851562 15.613281 299.914062 15.734375 Z M 69.605469 7.75 C 68.152344 7.417969 67.269531 7.5 66.5625 7.703125 C 67.46875 7.640625 69.097656 8.105469 69.605469 7.75 Z M 304.09375 15.507812 C 305.0625 15.304688 305.921875 15.082031 305.652344 14.617188 C 304.882812 14.855469 304.246094 15.128906 304.09375 15.507812 Z M 30.335938 1.378906 C 31.058594 1.652344 31.777344 2.007812 32.53125 2.351562 C 33.289062 2.695312 34.066406 3.050781 34.90625 3.394531 C 37.75 4.546875 41.136719 5.484375 44.808594 6.359375 C 46.648438 6.800781 48.550781 7.226562 50.496094 7.640625 C 52.457031 8 54.460938 8.367188 56.480469 8.746094 C 55.558594 8.484375 54.390625 8.210938 53.058594 7.9375 C 52.398438 7.808594 51.6875 7.667969 50.957031 7.523438 C 50.238281 7.371094 49.480469 7.203125 48.726562 7.027344 C 45.703125 6.347656 42.519531 5.660156 40.050781 4.984375 C 39.851562 4.9375 39.660156 4.878906 39.757812 4.761719 C 40.652344 4.84375 41.832031 5.128906 42.460938 4.996094 C 40.664062 4.355469 39.910156 4.855469 38.117188 4.414062 C 36.441406 4.011719 34.917969 3.097656 33.382812 2.246094 C 33.003906 2.03125 32.617188 1.816406 32.238281 1.628906 C 31.859375 1.414062 31.472656 1.226562 31.09375 1.046875 C 30.324219 0.691406 29.535156 0.417969 28.707031 0.3125 C 27.648438 0.167969 26.324219 0.453125 25.804688 0.953125 C 27.46875 0.5625 28.898438 0.832031 30.335938 1.378906 Z M 287.34375 19.410156 C 287.027344 19.183594 284.242188 20.074219 285.386719 20.15625 C 285.242188 19.71875 287.488281 19.847656 287.34375 19.410156 Z M 14.921875 2.8125 C 15.078125 2.433594 14.546875 2.199219 14.097656 1.9375 C 14.050781 2.730469 11.984375 1.855469 12.125 2.800781 C 13.402344 3.085938 14.121094 2.921875 14.921875 2.8125 Z M 14.921875 2.8125 " clip-rule="nonzero"/></clipPath><linearGradient x1="-0.00000898154" gradientTransform="matrix(-1.180285, -0.000000000000000145, 0.000000000000000145, -1.186237, 321.502273, 36.456119)" y1="15.258" x2="264.000001" gradientUnits="userSpaceOnUse" y2="15.258" id="id3"><stop stop-opacity="1" stop-color="rgb(78.399658%, 70.999146%, 100%)" offset="0"/><stop stop-opacity="1" stop-color="rgb(78.297424%, 71.133423%, 99.864197%)" offset="0.015625"/><stop stop-opacity="1" stop-color="rgb(78.096008%, 71.403503%, 99.59259%)" offset="0.03125"/><stop stop-opacity="1" stop-color="rgb(77.893066%, 71.672058%, 99.320984%)" offset="0.046875"/><stop stop-opacity="1" stop-color="rgb(77.69165%, 71.942139%, 99.050903%)" offset="0.0625"/><stop stop-opacity="1" stop-color="rgb(77.488708%, 72.212219%, 98.779297%)" offset="0.078125"/><stop stop-opacity="1" stop-color="rgb(77.287292%, 72.480774%, 98.50769%)" offset="0.09375"/><stop stop-opacity="1" stop-color="rgb(77.084351%, 72.750854%, 98.23761%)" offset="0.109375"/><stop stop-opacity="1" stop-color="rgb(76.882935%, 73.020935%, 97.966003%)" offset="0.125"/><stop stop-opacity="1" stop-color="rgb(76.679993%, 73.28949%, 97.694397%)" offset="0.140625"/><stop stop-opacity="1" stop-color="rgb(76.478577%, 73.55957%, 97.424316%)" offset="0.15625"/><stop stop-opacity="1" stop-color="rgb(76.275635%, 73.828125%, 97.15271%)" offset="0.171875"/><stop stop-opacity="1" stop-color="rgb(76.074219%, 74.098206%, 96.881104%)" offset="0.1875"/><stop stop-opacity="1" stop-color="rgb(75.871277%, 74.368286%, 96.611023%)" offset="0.203125"/><stop stop-opacity="1" stop-color="rgb(75.669861%, 74.636841%, 96.339417%)" offset="0.21875"/><stop stop-opacity="1" stop-color="rgb(75.468445%, 74.906921%, 96.06781%)" offset="0.234375"/><stop stop-opacity="1" stop-color="rgb(75.265503%, 75.177002%, 95.797729%)" offset="0.25"/><stop stop-opacity="1" stop-color="rgb(75.064087%, 75.445557%, 95.526123%)" offset="0.265625"/><stop stop-opacity="1" stop-color="rgb(74.861145%, 75.715637%, 95.254517%)" offset="0.28125"/><stop stop-opacity="1" stop-color="rgb(74.659729%, 75.985718%, 94.984436%)" offset="0.296875"/><stop stop-opacity="1" stop-color="rgb(74.456787%, 76.254272%, 94.71283%)" offset="0.3125"/><stop stop-opacity="1" stop-color="rgb(74.255371%, 76.524353%, 94.441223%)" offset="0.328125"/><stop stop-opacity="1" stop-color="rgb(74.052429%, 76.792908%, 94.171143%)" offset="0.34375"/><stop stop-opacity="1" stop-color="rgb(73.851013%, 77.062988%, 93.899536%)" offset="0.359375"/><stop stop-opacity="1" stop-color="rgb(73.648071%, 77.333069%, 93.62793%)" offset="0.375"/><stop stop-opacity="1" stop-color="rgb(73.446655%, 77.601624%, 93.357849%)" offset="0.390625"/><stop stop-opacity="1" stop-color="rgb(73.243713%, 77.871704%, 93.086243%)" offset="0.40625"/><stop stop-opacity="1" stop-color="rgb(73.042297%, 78.141785%, 92.814636%)" offset="0.421875"/><stop stop-opacity="1" stop-color="rgb(72.839355%, 78.410339%, 92.544556%)" offset="0.4375"/><stop stop-opacity="1" stop-color="rgb(72.637939%, 78.68042%, 92.272949%)" offset="0.453125"/><stop stop-opacity="1" stop-color="rgb(72.434998%, 78.9505%, 92.001343%)" offset="0.46875"/><stop stop-opacity="1" stop-color="rgb(72.233582%, 79.219055%, 91.731262%)" offset="0.484375"/><stop stop-opacity="1" stop-color="rgb(72.03064%, 79.489136%, 91.459656%)" offset="0.5"/><stop stop-opacity="1" stop-color="rgb(71.829224%, 79.75769%, 91.188049%)" offset="0.515625"/><stop stop-opacity="1" stop-color="rgb(71.626282%, 80.027771%, 90.917969%)" offset="0.53125"/><stop stop-opacity="1" stop-color="rgb(71.424866%, 80.297852%, 90.646362%)" offset="0.546875"/><stop stop-opacity="1" stop-color="rgb(71.221924%, 80.566406%, 90.374756%)" offset="0.5625"/><stop stop-opacity="1" stop-color="rgb(71.020508%, 80.836487%, 90.104675%)" offset="0.578125"/><stop stop-opacity="1" stop-color="rgb(70.819092%, 81.106567%, 89.833069%)" offset="0.59375"/><stop stop-opacity="1" stop-color="rgb(70.61615%, 81.375122%, 89.561462%)" offset="0.609375"/><stop stop-opacity="1" stop-color="rgb(70.414734%, 81.645203%, 89.291382%)" offset="0.625"/><stop stop-opacity="1" stop-color="rgb(70.211792%, 81.915283%, 89.019775%)" offset="0.640625"/><stop stop-opacity="1" stop-color="rgb(70.010376%, 82.183838%, 88.748169%)" offset="0.65625"/><stop stop-opacity="1" stop-color="rgb(69.807434%, 82.453918%, 88.478088%)" offset="0.671875"/><stop stop-opacity="1" stop-color="rgb(69.606018%, 82.723999%, 88.206482%)" offset="0.6875"/><stop stop-opacity="1" stop-color="rgb(69.403076%, 82.992554%, 87.934875%)" offset="0.703125"/><stop stop-opacity="1" stop-color="rgb(69.20166%, 83.262634%, 87.664795%)" offset="0.71875"/><stop stop-opacity="1" stop-color="rgb(68.998718%, 83.531189%, 87.393188%)" offset="0.734375"/><stop stop-opacity="1" stop-color="rgb(68.797302%, 83.80127%, 87.121582%)" offset="0.75"/><stop stop-opacity="1" stop-color="rgb(68.59436%, 84.07135%, 86.851501%)" offset="0.765625"/><stop stop-opacity="1" stop-color="rgb(68.392944%, 84.339905%, 86.579895%)" offset="0.78125"/><stop stop-opacity="1" stop-color="rgb(68.190002%, 84.609985%, 86.308289%)" offset="0.796875"/><stop stop-opacity="1" stop-color="rgb(67.988586%, 84.880066%, 86.038208%)" offset="0.8125"/><stop stop-opacity="1" stop-color="rgb(67.785645%, 85.148621%, 85.766602%)" offset="0.828125"/><stop stop-opacity="1" stop-color="rgb(67.584229%, 85.418701%, 85.494995%)" offset="0.84375"/><stop stop-opacity="1" stop-color="rgb(67.381287%, 85.688782%, 85.224915%)" offset="0.859375"/><stop stop-opacity="1" stop-color="rgb(67.179871%, 85.957336%, 84.953308%)" offset="0.875"/><stop stop-opacity="1" stop-color="rgb(66.976929%, 86.227417%, 84.681702%)" offset="0.890625"/><stop stop-opacity="1" stop-color="rgb(66.775513%, 86.495972%, 84.411621%)" offset="0.90625"/><stop stop-opacity="1" stop-color="rgb(66.572571%, 86.766052%, 84.140015%)" offset="0.921875"/><stop stop-opacity="1" stop-color="rgb(66.371155%, 87.036133%, 83.868408%)" offset="0.9375"/><stop stop-opacity="1" stop-color="rgb(66.169739%, 87.304688%, 83.598328%)" offset="0.953125"/><stop stop-opacity="1" stop-color="rgb(65.966797%, 87.574768%, 83.326721%)" offset="0.96875"/><stop stop-opacity="1" stop-color="rgb(65.765381%, 87.844849%, 83.055115%)" offset="0.984375"/><stop stop-opacity="1" stop-color="rgb(65.582275%, 88.088989%, 82.809448%)" offset="1"/></linearGradient></defs><g clip-path="url(#id1)"><g clip-path="url(#id2)"><path fill="url(#id3)" d="M 321.503906 36.457031 L 321.503906 0.167969 L 9.90625 0.167969 L 9.90625 36.457031 Z M 321.503906 36.457031 " fill-rule="nonzero"/></g></g></svg>