<svg xmlns="http://www.w3.org/2000/svg" xmlns:xlink="http://www.w3.org/1999/xlink" width="85" zoomAndPan="magnify" viewBox="0 0 63.75 63.749998" height="85" preserveAspectRatio="xMidYMid meet" version="1.0"><defs><clipPath id="id1"><path d="M 0 0 L 63.5 0 L 63.5 63 L 0 63 Z M 0 0 " clip-rule="nonzero"/></clipPath><clipPath id="id2"><path d="M 0 0 L 46 0 L 46 63.5 L 0 63.5 Z M 0 0 " clip-rule="nonzero"/></clipPath></defs><g clip-path="url(#id1)"><path fill="#d9faf8" d="M 59.925781 62.871094 L 3.992188 62.871094 C 1.839844 62.871094 0.0898438 61.125 0.0898438 58.984375 L 0.0898438 4.507812 C 0.0898438 2.367188 1.839844 0.621094 3.992188 0.621094 L 59.925781 0.621094 C 62.074219 0.621094 63.828125 2.367188 63.828125 4.507812 L 63.828125 58.984375 C 63.828125 61.125 62.074219 62.871094 59.925781 62.871094 " fill-opacity="1" fill-rule="nonzero"/></g><g clip-path="url(#id2)"><path stroke-linecap="round" transform="matrix(-0.0111647, 5.210906, -5.249987, -0.0112484, 15.432074, 13.059416)" fill="none" stroke-linejoin="miter" d="M 0.499845 0.000135646 L 6.698534 0.000346317 " stroke="#000000" stroke-width="1" stroke-opacity="1" stroke-miterlimit="4"/></g><path stroke-linecap="round" transform="matrix(-5.21241, -0.000000000000000638, 0.000000000000000643, -5.25, 51.555685, 15.679604)" fill="none" stroke-linejoin="miter" d="M 0.50005 -0.0000158958 L 6.982476 -0.0000158958 " stroke="#000000" stroke-width="1" stroke-opacity="1" stroke-miterlimit="4"/><path stroke-linecap="round" transform="matrix(-5.223318, -0.00000000000000064, 0.000000000000000643, -5.25, 51.473653, 48.220394)" fill="none" stroke-linejoin="miter" d="M 0.499754 0.000313234 L 6.967146 0.000313234 " stroke="#000000" stroke-width="1" stroke-opacity="1" stroke-miterlimit="4"/><path stroke-linecap="round" transform="matrix(0.000000000000000319, 5.210918, -5.25, 0.000000000000000321, 48.928589, 13.059373)" fill="none" stroke-linejoin="miter" d="M 0.499852 -0.000209163 L 6.698526 -0.000209163 " stroke="#000000" stroke-width="1" stroke-opacity="1" stroke-miterlimit="4"/></svg>