<svg xmlns="http://www.w3.org/2000/svg" xmlns:xlink="http://www.w3.org/1999/xlink" width="85" zoomAndPan="magnify" viewBox="0 0 63.75 63.749998" height="85" preserveAspectRatio="xMidYMid meet" version="1.0"><defs><clipPath id="id1"><path d="M 0 0 L 63.5 0 L 63.5 63.5 L 0 63.5 Z M 0 0 " clip-rule="nonzero"/></clipPath></defs><g clip-path="url(#id1)"><path fill="#d9faf8" d="M 59.957031 63.246094 L 4.023438 63.246094 C 1.871094 63.246094 0.121094 61.5 0.121094 59.359375 L 0.121094 4.882812 C 0.121094 2.742188 1.871094 0.996094 4.023438 0.996094 L 59.957031 0.996094 C 62.109375 0.996094 63.859375 2.742188 63.859375 4.882812 L 63.859375 59.359375 C 63.859375 61.5 62.109375 63.246094 59.957031 63.246094 " fill-opacity="1" fill-rule="nonzero"/></g><path stroke-linecap="round" transform="matrix(-5.193645, -0.000000000000000636, 0.000000000000000643, -5.25, 39.551301, 16.349999)" fill="none" stroke-linejoin="miter" d="M 0.500261 -0.000297749 L 4.700105 -0.000297749 " stroke="#000000" stroke-width="1" stroke-opacity="1" stroke-miterlimit="4"/><path stroke-linecap="round" transform="matrix(-5.25, -0.000000000000000643, 0.000000000000000643, -5.25, 51.25833, 32.249998)" fill="none" stroke-linejoin="miter" d="M 0.500099 -0.000000393312 L 6.929414 -0.000000393312 " stroke="#000000" stroke-width="1" stroke-opacity="1" stroke-miterlimit="4"/><path stroke-linecap="round" transform="matrix(-5.25, -0.000000000000000643, 0.000000000000000643, -5.25, 51.488657, 47.399999)" fill="none" stroke-linejoin="miter" d="M 0.500072 0.000297424 L 6.929387 0.000297424 " stroke="#000000" stroke-width="1" stroke-opacity="1" stroke-miterlimit="4"/></svg>