<svg xmlns="http://www.w3.org/2000/svg" xmlns:xlink="http://www.w3.org/1999/xlink" width="85" zoomAndPan="magnify" viewBox="0 0 63.75 63.749998" height="85" preserveAspectRatio="xMidYMid meet" version="1.0"><defs><clipPath id="id1"><path d="M 0 0 L 63.5 0 L 63.5 63.5 L 0 63.5 Z M 0 0 " clip-rule="nonzero"/></clipPath></defs><g clip-path="url(#id1)"><path fill="#d9faf8" d="M 59.339844 63.0625 L 4.054688 63.0625 C 1.929688 63.0625 0.195312 61.316406 0.195312 59.175781 L 0.195312 4.703125 C 0.195312 2.5625 1.929688 0.816406 4.054688 0.816406 L 59.339844 0.816406 C 61.464844 0.816406 63.195312 2.5625 63.195312 4.703125 L 63.195312 59.175781 C 63.195312 61.316406 61.464844 63.0625 59.339844 63.0625 " fill-opacity="1" fill-rule="nonzero"/></g><path stroke-linecap="round" transform="matrix(-5.266458, -0.000000000000000645, 0.000000000000000643, -5.25, 52.868394, 48.240339)" fill="none" stroke-linejoin="miter" d="M 0.50015 -0.000352007 L 5.910274 -0.000352007 " stroke="#000000" stroke-width="1" stroke-opacity="1" stroke-miterlimit="4"/><path fill="#000000" d="M 12.753906 12.539062 C 10.890625 12.539062 9.378906 14.050781 9.378906 15.914062 C 9.378906 17.777344 10.890625 19.289062 12.753906 19.289062 C 14.617188 19.289062 16.128906 17.777344 16.128906 15.914062 C 16.128906 14.050781 14.617188 12.539062 12.753906 12.539062 " fill-opacity="1" fill-rule="nonzero"/><path stroke-linecap="round" transform="matrix(-5.266458, -0.000000000000000645, 0.000000000000000643, -5.25, 52.868394, 15.84375)" fill="none" stroke-linejoin="miter" d="M 0.50015 -0.0000000748862 L 5.910274 -0.0000000748862 " stroke="#000000" stroke-width="1" stroke-opacity="1" stroke-miterlimit="4"/><path stroke-linecap="round" transform="matrix(-5.266458, -0.000000000000000645, 0.000000000000000643, -5.25, 52.868394, 31.874996)" fill="none" stroke-linejoin="miter" d="M 0.50015 -0.00000068631 L 5.910274 -0.00000068631 " stroke="#000000" stroke-width="1" stroke-opacity="1" stroke-miterlimit="4"/><path fill="#000000" d="M 12.753906 28.570312 C 10.890625 28.570312 9.378906 30.082031 9.378906 31.945312 C 9.378906 33.808594 10.890625 35.320312 12.753906 35.320312 C 14.617188 35.320312 16.128906 33.808594 16.128906 31.945312 C 16.128906 30.082031 14.617188 28.570312 12.753906 28.570312 " fill-opacity="1" fill-rule="nonzero"/><path fill="#000000" d="M 12.753906 44.9375 C 10.890625 44.9375 9.378906 46.449219 9.378906 48.3125 C 9.378906 50.175781 10.890625 51.6875 12.753906 51.6875 C 14.617188 51.6875 16.128906 50.175781 16.128906 48.3125 C 16.128906 46.449219 14.617188 44.9375 12.753906 44.9375 " fill-opacity="1" fill-rule="nonzero"/></svg>