<svg xmlns="http://www.w3.org/2000/svg" xmlns:xlink="http://www.w3.org/1999/xlink" width="300" zoomAndPan="magnify" viewBox="0 0 224.87999 74.999997" height="100" preserveAspectRatio="xMidYMid meet" version="1.0"><defs><g/><clipPath id="id1"><path d="M 40 7 L 190 7 L 190 51 L 40 51 Z M 40 7 " clip-rule="nonzero"/></clipPath><clipPath id="id2"><path d="M 42.835938 0.0195312 L 192.285156 11.902344 L 189.015625 53 L 39.566406 41.117188 Z M 42.835938 0.0195312 " clip-rule="nonzero"/></clipPath><clipPath id="id3"><path d="M 42.835938 0.0195312 L 192.285156 11.902344 L 189.015625 53 L 39.566406 41.117188 Z M 42.835938 0.0195312 " clip-rule="nonzero"/></clipPath><clipPath id="id4"><path d="M 42.835938 0.0195312 L 192.285156 11.902344 L 189.015625 53 L 39.566406 41.117188 Z M 42.835938 0.0195312 " clip-rule="nonzero"/></clipPath></defs><g clip-path="url(#id1)"><g clip-path="url(#id2)"><g clip-path="url(#id3)"><g clip-path="url(#id4)"><path fill="rgb(100%, 100%, 100%)" d="M 164.179688 24.148438 C 163.140625 22.457031 162.132812 20.75 161.070312 19.070312 C 160.132812 17.597656 160.074219 16.210938 160.976562 14.640625 C 162.085938 12.6875 163.191406 10.816406 165.609375 9.925781 C 166.109375 10.558594 166.617188 11.195312 167.125 11.828125 C 173.886719 20.335938 180.605469 28.871094 187.4375 37.328125 C 189.722656 40.152344 189.871094 41.839844 187.558594 44.65625 C 186.84375 45.535156 186.15625 46.429688 185.445312 47.316406 C 183.847656 49.304688 181.949219 50.691406 179.230469 50.351562 C 174.742188 49.792969 170.261719 49.226562 165.785156 48.640625 C 159.785156 47.863281 153.808594 48.167969 147.839844 49.027344 C 147.023438 49.140625 146.199219 49.214844 144.851562 49.367188 C 145.078125 48.058594 145 46.972656 145.460938 46.195312 C 146.359375 44.671875 147.558594 43.320312 148.617188 41.894531 C 149.75 40.382812 151.296875 39.5625 153.121094 39.226562 C 157.242188 38.480469 161.367188 37.734375 165.726562 36.949219 C 165.460938 36.605469 165.300781 36.21875 165.011719 36.046875 C 150.667969 27.734375 135.671875 21.085938 118.972656 19.628906 C 109.015625 18.753906 98.953125 18.980469 89.039062 20.492188 C 78.84375 22.050781 68.691406 23.917969 58.589844 25.96875 C 54.917969 26.71875 51.394531 28.277344 47.882812 29.679688 C 44.832031 30.902344 43.992188 30.785156 42.144531 28.035156 C 41.660156 27.339844 41.257812 26.597656 40.785156 25.820312 C 41.933594 23.285156 43.914062 21.664062 46.289062 20.40625 C 51.265625 17.773438 56.621094 16.199219 62.027344 14.867188 C 70.097656 12.863281 78.199219 10.929688 86.355469 9.328125 C 95.796875 7.472656 105.40625 7.109375 114.976562 7.40625 C 128.679688 7.828125 141.472656 11.863281 153.480469 18.429688 C 156.976562 20.339844 160.382812 22.425781 163.832031 24.429688 C 163.953125 24.335938 164.066406 24.246094 164.179688 24.148438 Z M 164.179688 24.148438 " fill-opacity="1" fill-rule="nonzero"/></g></g></g></g><g fill="rgb(100%, 100%, 100%)" fill-opacity="1"><g transform="translate(54.593893, 66.760663)"><g><path d="M 1.46875 -1.21875 C 1.75 -1.96875 1.941406 -2.785156 2.046875 -3.671875 C 2.148438 -4.554688 2.226562 -5.441406 2.28125 -6.328125 C 2.28125 -6.460938 2.273438 -6.585938 2.265625 -6.703125 C 2.265625 -6.804688 2.265625 -6.90625 2.265625 -7 C 2.222656 -6.019531 2.144531 -5.039062 2.03125 -4.0625 C 1.925781 -3.050781 1.703125 -2.117188 1.359375 -1.265625 C 1.296875 -1.378906 1.25 -1.472656 1.21875 -1.546875 C 1.195312 -1.628906 1.1875 -1.722656 1.1875 -1.828125 C 1.1875 -2.148438 1.238281 -2.484375 1.34375 -2.828125 C 1.457031 -3.171875 1.523438 -3.53125 1.546875 -3.90625 L 1.828125 -4.015625 C 1.828125 -4.671875 1.851562 -5.316406 1.90625 -5.953125 C 1.957031 -6.597656 1.984375 -7.242188 1.984375 -7.890625 C 1.984375 -8.222656 1.972656 -8.546875 1.953125 -8.859375 C 1.929688 -9.179688 1.890625 -9.515625 1.828125 -9.859375 L 1.703125 -9.859375 C 1.785156 -8.921875 1.828125 -8.019531 1.828125 -7.15625 C 1.828125 -6.71875 1.816406 -6.300781 1.796875 -5.90625 C 1.765625 -5.53125 1.71875 -5.15625 1.65625 -4.78125 C 1.6875 -5.070312 1.710938 -5.347656 1.734375 -5.609375 C 1.753906 -5.910156 1.765625 -6.234375 1.765625 -6.578125 C 1.765625 -7.648438 1.722656 -8.738281 1.640625 -9.84375 C 1.554688 -10.957031 1.476562 -12.097656 1.40625 -13.265625 L 1.40625 -13.828125 C 1.445312 -13.984375 1.46875 -14.15625 1.46875 -14.34375 C 1.476562 -14.53125 1.5 -14.707031 1.53125 -14.875 C 1.5625 -15.050781 1.613281 -15.191406 1.6875 -15.296875 C 1.757812 -15.410156 1.878906 -15.46875 2.046875 -15.46875 L 2.390625 -15.375 L 2.5 -15.140625 L 2.6875 -15.140625 C 2.738281 -15.210938 2.796875 -15.25 2.859375 -15.25 C 2.941406 -15.25 3.019531 -15.21875 3.09375 -15.15625 C 3.175781 -15.101562 3.269531 -15.078125 3.375 -15.078125 C 3.582031 -15.078125 3.722656 -14.941406 3.796875 -14.671875 C 3.878906 -14.398438 3.929688 -14.0625 3.953125 -13.65625 C 3.984375 -13.25 4 -12.800781 4 -12.3125 C 4 -11.832031 4.023438 -11.378906 4.078125 -10.953125 C 4.117188 -10.578125 4.15625 -10.191406 4.1875 -9.796875 C 4.21875 -9.398438 4.234375 -9.003906 4.234375 -8.609375 C 4.234375 -8.210938 4.21875 -7.75 4.1875 -7.21875 C 4.164062 -6.6875 4.128906 -6.140625 4.078125 -5.578125 C 4.035156 -5.015625 3.976562 -4.453125 3.90625 -3.890625 C 3.84375 -3.335938 3.769531 -2.84375 3.6875 -2.40625 C 3.613281 -1.96875 3.523438 -1.613281 3.421875 -1.34375 C 3.316406 -1.070312 3.210938 -0.9375 3.109375 -0.9375 C 3.078125 -0.9375 3.035156 -0.945312 2.984375 -0.96875 C 3.078125 -1.394531 3.164062 -1.820312 3.25 -2.25 C 3.332031 -2.675781 3.410156 -3.117188 3.484375 -3.578125 C 3.390625 -3.148438 3.289062 -2.710938 3.1875 -2.265625 C 3.09375 -1.828125 2.984375 -1.414062 2.859375 -1.03125 C 2.804688 -1.082031 2.742188 -1.109375 2.671875 -1.109375 C 2.640625 -1.109375 2.609375 -1.078125 2.578125 -1.015625 C 2.546875 -0.953125 2.5 -0.875 2.4375 -0.78125 C 2.382812 -0.695312 2.316406 -0.617188 2.234375 -0.546875 C 2.160156 -0.484375 2.078125 -0.453125 1.984375 -0.453125 C 1.890625 -0.453125 1.816406 -0.472656 1.765625 -0.515625 C 1.710938 -0.554688 1.671875 -0.601562 1.640625 -0.65625 C 1.609375 -0.71875 1.570312 -0.78125 1.53125 -0.84375 C 1.5 -0.914062 1.457031 -0.976562 1.40625 -1.03125 Z M 3.78125 -6.9375 C 3.695312 -6.675781 3.640625 -6.4375 3.609375 -6.21875 C 3.578125 -6 3.554688 -5.789062 3.546875 -5.59375 C 3.546875 -5.394531 3.546875 -5.1875 3.546875 -4.96875 C 3.546875 -4.78125 3.535156 -4.578125 3.515625 -4.359375 C 3.566406 -4.804688 3.613281 -5.21875 3.65625 -5.59375 C 3.707031 -5.988281 3.75 -6.4375 3.78125 -6.9375 Z M 1.65625 -4.6875 C 1.65625 -4.71875 1.65625 -4.75 1.65625 -4.78125 C 1.65625 -4.75 1.65625 -4.71875 1.65625 -4.6875 Z M 1.65625 -4.6875 "/></g></g></g><g fill="rgb(100%, 100%, 100%)" fill-opacity="1"><g transform="translate(60.026004, 66.760663)"><g><path d="M 1.1875 -1.265625 C 1.1875 -1.335938 1.207031 -1.421875 1.25 -1.515625 C 1.289062 -1.609375 1.3125 -1.707031 1.3125 -1.8125 C 1.351562 -2.125 1.378906 -2.347656 1.390625 -2.484375 C 1.398438 -2.628906 1.40625 -2.753906 1.40625 -2.859375 C 1.40625 -3.421875 1.390625 -4.019531 1.359375 -4.65625 C 1.328125 -5.300781 1.289062 -5.925781 1.25 -6.53125 C 1.25 -6.707031 1.242188 -6.921875 1.234375 -7.171875 C 1.234375 -7.429688 1.21875 -7.632812 1.1875 -7.78125 C 1.226562 -8.238281 1.257812 -8.691406 1.28125 -9.140625 C 1.3125 -9.597656 1.328125 -10.054688 1.328125 -10.515625 L 1.328125 -11.015625 C 1.328125 -11.191406 1.320312 -11.363281 1.3125 -11.53125 C 1.351562 -11.5 1.394531 -11.484375 1.4375 -11.484375 C 1.488281 -11.484375 1.539062 -11.5 1.59375 -11.53125 C 1.65625 -11.570312 1.710938 -11.59375 1.765625 -11.59375 C 1.859375 -11.59375 1.9375 -11.492188 2 -11.296875 C 2.0625 -11.097656 2.09375 -10.660156 2.09375 -9.984375 L 2.265625 -9.984375 C 2.328125 -10.722656 2.425781 -11.3125 2.5625 -11.75 C 2.707031 -12.1875 2.851562 -12.40625 3 -12.40625 C 3.070312 -12.40625 3.179688 -12.265625 3.328125 -11.984375 C 3.472656 -11.703125 3.546875 -11.253906 3.546875 -10.640625 L 3.765625 -11 C 3.910156 -11.175781 4.070312 -11.351562 4.25 -11.53125 C 4.425781 -11.71875 4.625 -11.882812 4.84375 -12.03125 C 5.070312 -12.175781 5.328125 -12.296875 5.609375 -12.390625 C 5.890625 -12.492188 6.207031 -12.546875 6.5625 -12.546875 C 7.25 -12.546875 7.847656 -12.390625 8.359375 -12.078125 C 8.867188 -11.765625 9.296875 -11.359375 9.640625 -10.859375 C 9.992188 -10.367188 10.28125 -9.804688 10.5 -9.171875 C 10.71875 -8.546875 10.882812 -7.910156 11 -7.265625 C 11.113281 -6.628906 11.191406 -6.007812 11.234375 -5.40625 C 11.273438 -4.8125 11.296875 -4.300781 11.296875 -3.875 C 11.296875 -3.488281 11.269531 -3.257812 11.21875 -3.1875 C 11.175781 -3.113281 11.097656 -3.070312 10.984375 -3.0625 C 10.953125 -4.082031 10.882812 -5.125 10.78125 -6.1875 C 10.675781 -7.25 10.425781 -8.273438 10.03125 -9.265625 C 10.382812 -8.222656 10.609375 -7.191406 10.703125 -6.171875 C 10.804688 -5.160156 10.859375 -4.144531 10.859375 -3.125 C 10.773438 -3.164062 10.703125 -3.1875 10.640625 -3.1875 C 10.585938 -3.1875 10.539062 -3.164062 10.5 -3.125 C 10.5 -3.019531 10.503906 -2.90625 10.515625 -2.78125 C 10.535156 -2.675781 10.546875 -2.570312 10.546875 -2.46875 C 10.554688 -2.363281 10.5625 -2.265625 10.5625 -2.171875 C 10.476562 -1.859375 10.394531 -1.632812 10.3125 -1.5 C 10.238281 -1.375 10.171875 -1.3125 10.109375 -1.3125 C 10.023438 -1.3125 9.957031 -1.347656 9.90625 -1.421875 C 9.851562 -1.492188 9.800781 -1.582031 9.75 -1.6875 C 9.707031 -1.789062 9.660156 -1.90625 9.609375 -2.03125 C 9.566406 -2.164062 9.503906 -2.289062 9.421875 -2.40625 C 9.453125 -2.632812 9.472656 -2.816406 9.484375 -2.953125 C 9.492188 -3.085938 9.5 -3.203125 9.5 -3.296875 C 9.5 -3.660156 9.492188 -4.09375 9.484375 -4.59375 C 9.472656 -5.09375 9.4375 -5.617188 9.375 -6.171875 C 9.3125 -6.722656 9.21875 -7.273438 9.09375 -7.828125 C 8.96875 -8.378906 8.796875 -8.867188 8.578125 -9.296875 C 8.359375 -9.722656 8.082031 -10.070312 7.75 -10.34375 C 7.425781 -10.625 7.03125 -10.765625 6.5625 -10.765625 C 6.25 -10.765625 5.96875 -10.65625 5.71875 -10.4375 C 5.46875 -10.226562 5.253906 -9.957031 5.078125 -9.625 C 4.898438 -9.289062 4.742188 -8.925781 4.609375 -8.53125 C 4.484375 -8.144531 4.378906 -7.773438 4.296875 -7.421875 C 4.410156 -7.785156 4.53125 -8.160156 4.65625 -8.546875 C 4.789062 -8.929688 4.945312 -9.28125 5.125 -9.59375 C 5.300781 -9.914062 5.507812 -10.179688 5.75 -10.390625 C 5.988281 -10.597656 6.265625 -10.703125 6.578125 -10.703125 C 6.992188 -10.703125 7.347656 -10.585938 7.640625 -10.359375 C 7.941406 -10.140625 8.195312 -9.847656 8.40625 -9.484375 C 8.613281 -9.128906 8.78125 -8.722656 8.90625 -8.265625 C 9.03125 -7.804688 9.125 -7.34375 9.1875 -6.875 C 9.25 -6.40625 9.289062 -5.945312 9.3125 -5.5 C 9.332031 -5.050781 9.34375 -4.671875 9.34375 -4.359375 C 9.34375 -4.109375 9.335938 -3.851562 9.328125 -3.59375 C 9.328125 -3.34375 9.320312 -3.085938 9.3125 -2.828125 C 9.1875 -3.328125 9.09375 -3.851562 9.03125 -4.40625 C 8.976562 -4.957031 8.914062 -5.5 8.84375 -6.03125 C 8.78125 -6.570312 8.695312 -7.085938 8.59375 -7.578125 C 8.5 -8.078125 8.359375 -8.539062 8.171875 -8.96875 L 8.3125 -9.171875 C 8.175781 -9.472656 8.023438 -9.707031 7.859375 -9.875 C 7.703125 -10.039062 7.539062 -10.160156 7.375 -10.234375 C 7.21875 -10.316406 7.070312 -10.363281 6.9375 -10.375 C 6.8125 -10.394531 6.726562 -10.40625 6.6875 -10.40625 C 6.351562 -10.40625 6.054688 -10.285156 5.796875 -10.046875 C 5.535156 -9.804688 5.304688 -9.484375 5.109375 -9.078125 C 4.921875 -8.671875 4.753906 -8.203125 4.609375 -7.671875 C 4.460938 -7.140625 4.335938 -6.582031 4.234375 -6 C 4.128906 -5.414062 4.035156 -4.828125 3.953125 -4.234375 C 3.878906 -3.648438 3.816406 -3.097656 3.765625 -2.578125 L 3.9375 -2.578125 C 4 -3.035156 4.066406 -3.535156 4.140625 -4.078125 C 4.210938 -4.617188 4.289062 -5.171875 4.375 -5.734375 C 4.46875 -6.296875 4.570312 -6.84375 4.6875 -7.375 C 4.8125 -7.90625 4.957031 -8.382812 5.125 -8.8125 C 5.289062 -9.238281 5.484375 -9.582031 5.703125 -9.84375 C 5.921875 -10.09375 6.179688 -10.238281 6.484375 -10.28125 C 6.191406 -10.21875 5.945312 -10.03125 5.75 -9.71875 C 5.539062 -9.40625 5.351562 -9.015625 5.1875 -8.546875 C 5.03125 -8.085938 4.890625 -7.582031 4.765625 -7.03125 C 4.640625 -6.476562 4.523438 -5.953125 4.421875 -5.453125 L 4.015625 -2.546875 C 3.960938 -2.359375 3.925781 -2.191406 3.90625 -2.046875 L 3.8125 -1.625 C 3.789062 -1.5 3.765625 -1.359375 3.734375 -1.203125 C 3.710938 -1.046875 3.679688 -0.867188 3.640625 -0.671875 L 3.578125 -0.4375 L 3.46875 -0.4375 L 1.453125 -1.109375 C 1.390625 -1.128906 1.335938 -1.148438 1.296875 -1.171875 C 1.265625 -1.203125 1.226562 -1.234375 1.1875 -1.265625 Z M 4.65625 -11.484375 C 4.382812 -11.253906 4.171875 -11.007812 4.015625 -10.75 C 3.867188 -10.488281 3.726562 -10.226562 3.59375 -9.96875 L 3.59375 -9.9375 C 3.78125 -10.320312 4.039062 -10.71875 4.375 -11.125 C 4.695312 -11.488281 5.125 -11.765625 5.65625 -11.953125 C 5.476562 -11.898438 5.3125 -11.847656 5.15625 -11.796875 C 4.96875 -11.734375 4.800781 -11.628906 4.65625 -11.484375 Z M 7.046875 -12.140625 C 6.972656 -12.148438 6.878906 -12.15625 6.765625 -12.15625 C 7.191406 -12.050781 7.585938 -11.929688 7.953125 -11.796875 C 8.328125 -11.671875 8.679688 -11.425781 9.015625 -11.0625 C 8.785156 -11.363281 8.488281 -11.597656 8.125 -11.765625 C 7.757812 -11.941406 7.398438 -12.066406 7.046875 -12.140625 Z M 7.578125 -9.859375 C 7.472656 -9.941406 7.347656 -10.003906 7.203125 -10.046875 C 7.066406 -10.097656 6.898438 -10.164062 6.703125 -10.25 L 6.6875 -10.28125 C 6.90625 -10.269531 7.097656 -10.21875 7.265625 -10.125 C 7.441406 -10.039062 7.613281 -9.894531 7.78125 -9.6875 Z M 9.046875 -11.015625 C 9.234375 -10.796875 9.40625 -10.539062 9.5625 -10.25 C 9.726562 -9.957031 9.867188 -9.695312 9.984375 -9.46875 C 9.847656 -9.769531 9.71875 -10.046875 9.59375 -10.296875 C 9.476562 -10.554688 9.296875 -10.796875 9.046875 -11.015625 Z M 9.046875 -11.015625 "/></g></g></g><g fill="rgb(100%, 100%, 100%)" fill-opacity="1"><g transform="translate(72.322888, 66.760663)"><g><path d="M 8.390625 -9.9375 C 8.273438 -9.9375 8.113281 -9.914062 7.90625 -9.875 C 7.695312 -9.84375 7.488281 -9.800781 7.28125 -9.75 C 7.082031 -9.695312 6.898438 -9.640625 6.734375 -9.578125 C 6.566406 -9.523438 6.460938 -9.488281 6.421875 -9.46875 C 6.765625 -9.519531 7.082031 -9.582031 7.375 -9.65625 C 7.664062 -9.726562 7.984375 -9.765625 8.328125 -9.765625 C 8.265625 -9.648438 8.179688 -9.554688 8.078125 -9.484375 C 7.972656 -9.421875 7.851562 -9.367188 7.71875 -9.328125 C 7.59375 -9.296875 7.457031 -9.269531 7.3125 -9.25 C 7.164062 -9.238281 7.015625 -9.210938 6.859375 -9.171875 L 6.71875 -9.34375 C 6.46875 -9.25 6.273438 -9.191406 6.140625 -9.171875 C 6.015625 -9.160156 5.878906 -9.15625 5.734375 -9.15625 C 5.566406 -9.15625 5.398438 -9.15625 5.234375 -9.15625 C 5.078125 -9.164062 4.894531 -9.171875 4.6875 -9.171875 C 4.6875 -9.097656 4.679688 -9.046875 4.671875 -9.015625 C 4.972656 -9.015625 5.226562 -9.015625 5.4375 -9.015625 C 5.65625 -9.023438 5.914062 -9.050781 6.21875 -9.09375 C 5.925781 -9.039062 5.671875 -9 5.453125 -8.96875 C 5.234375 -8.945312 4.972656 -8.9375 4.671875 -8.9375 C 4.617188 -8.625 4.570312 -8.320312 4.53125 -8.03125 C 4.488281 -7.738281 4.46875 -7.457031 4.46875 -7.1875 C 4.46875 -7.019531 4.472656 -6.832031 4.484375 -6.625 C 4.503906 -6.414062 4.523438 -6.203125 4.546875 -5.984375 C 4.566406 -5.765625 4.582031 -5.554688 4.59375 -5.359375 C 4.601562 -5.171875 4.609375 -5.03125 4.609375 -4.9375 L 4.609375 -3.734375 C 4.679688 -3.472656 4.875 -3.273438 5.1875 -3.140625 C 5.507812 -3.003906 5.96875 -2.9375 6.5625 -2.9375 L 7.203125 -2.9375 C 7.421875 -2.9375 7.570312 -2.910156 7.65625 -2.859375 C 7.75 -2.816406 7.796875 -2.757812 7.796875 -2.6875 C 7.796875 -2.613281 7.742188 -2.570312 7.640625 -2.5625 C 7.535156 -2.5625 7.425781 -2.5625 7.3125 -2.5625 C 6.9375 -2.5625 6.535156 -2.585938 6.109375 -2.640625 C 5.710938 -2.691406 5.320312 -2.753906 4.9375 -2.828125 C 5.320312 -2.734375 5.722656 -2.644531 6.140625 -2.5625 C 6.578125 -2.5 7.003906 -2.46875 7.421875 -2.46875 L 7.59375 -2.46875 C 7.644531 -2.46875 7.707031 -2.472656 7.78125 -2.484375 C 7.78125 -2.421875 7.78125 -2.363281 7.78125 -2.3125 C 7.789062 -2.257812 7.8125 -2.195312 7.84375 -2.125 L 8 -2.171875 C 8.039062 -2.179688 8.085938 -2.1875 8.140625 -2.1875 C 8.191406 -2.195312 8.226562 -2.21875 8.25 -2.25 C 8.675781 -2.207031 8.890625 -2.0625 8.890625 -1.8125 C 8.890625 -1.664062 8.847656 -1.546875 8.765625 -1.453125 C 8.691406 -1.359375 8.59375 -1.285156 8.46875 -1.234375 C 8.351562 -1.179688 8.222656 -1.144531 8.078125 -1.125 C 7.929688 -1.101562 7.789062 -1.09375 7.65625 -1.09375 C 7.195312 -1.09375 6.742188 -1.117188 6.296875 -1.171875 C 5.847656 -1.234375 5.414062 -1.300781 5 -1.375 C 5.363281 -1.238281 5.832031 -1.128906 6.40625 -1.046875 C 6.976562 -0.972656 7.554688 -0.9375 8.140625 -0.9375 C 7.992188 -0.84375 7.816406 -0.769531 7.609375 -0.71875 C 7.410156 -0.664062 7.207031 -0.640625 7 -0.640625 L 5.5625 -0.8125 C 5.382812 -0.84375 5.242188 -0.867188 5.140625 -0.890625 C 5.046875 -0.921875 4.953125 -0.953125 4.859375 -0.984375 C 4.765625 -1.015625 4.660156 -1.050781 4.546875 -1.09375 C 4.429688 -1.132812 4.273438 -1.179688 4.078125 -1.234375 L 4.078125 -1.453125 C 3.734375 -1.546875 3.453125 -1.703125 3.234375 -1.921875 C 3.023438 -2.148438 2.859375 -2.394531 2.734375 -2.65625 C 2.617188 -2.925781 2.539062 -3.195312 2.5 -3.46875 C 2.46875 -3.738281 2.453125 -3.984375 2.453125 -4.203125 C 2.453125 -4.421875 2.453125 -4.625 2.453125 -4.8125 C 2.460938 -5.007812 2.46875 -5.207031 2.46875 -5.40625 C 2.46875 -5.550781 2.460938 -5.738281 2.453125 -5.96875 C 2.453125 -6.195312 2.441406 -6.4375 2.421875 -6.6875 C 2.410156 -6.9375 2.398438 -7.191406 2.390625 -7.453125 C 2.390625 -7.722656 2.390625 -7.976562 2.390625 -8.21875 C 2.390625 -8.363281 2.390625 -8.5 2.390625 -8.625 C 2.398438 -8.757812 2.410156 -8.878906 2.421875 -8.984375 L 2.234375 -8.984375 C 2.210938 -8.890625 2.203125 -8.785156 2.203125 -8.671875 L 2.203125 -8.3125 C 2.203125 -7.925781 2.207031 -7.546875 2.21875 -7.171875 C 2.238281 -6.796875 2.25 -6.445312 2.25 -6.125 C 2.257812 -5.8125 2.269531 -5.535156 2.28125 -5.296875 C 2.300781 -5.066406 2.3125 -4.898438 2.3125 -4.796875 L 2.3125 -3.84375 C 2.269531 -4.195312 2.226562 -4.707031 2.1875 -5.375 C 2.144531 -6.144531 2.125 -6.992188 2.125 -7.921875 L 2.125 -8.28125 C 2.125 -8.425781 2.125 -8.5625 2.125 -8.6875 C 2.132812 -8.820312 2.15625 -8.921875 2.1875 -8.984375 L 1.515625 -9.03125 C 1.367188 -9.125 1.222656 -9.195312 1.078125 -9.25 C 0.929688 -9.300781 0.796875 -9.328125 0.671875 -9.328125 L 0.671875 -9.71875 C 0.671875 -9.800781 0.679688 -9.875 0.703125 -9.9375 C 0.722656 -10 0.785156 -10.03125 0.890625 -10.03125 C 0.921875 -10.03125 0.988281 -10.015625 1.09375 -9.984375 L 1.09375 -10.21875 C 0.945312 -10.300781 0.828125 -10.410156 0.734375 -10.546875 C 0.640625 -10.691406 0.59375 -10.835938 0.59375 -10.984375 C 0.59375 -11.328125 0.835938 -11.5 1.328125 -11.5 C 1.515625 -11.5 1.707031 -11.484375 1.90625 -11.453125 C 2.101562 -11.429688 2.3125 -11.410156 2.53125 -11.390625 C 2.582031 -11.679688 2.625 -11.941406 2.65625 -12.171875 C 2.695312 -12.410156 2.738281 -12.640625 2.78125 -12.859375 C 2.820312 -13.078125 2.867188 -13.296875 2.921875 -13.515625 C 2.972656 -13.734375 3.039062 -13.960938 3.125 -14.203125 C 3.238281 -14.460938 3.328125 -14.75 3.390625 -15.0625 C 3.460938 -15.375 3.515625 -15.679688 3.546875 -15.984375 L 3.953125 -15.96875 C 4.023438 -15.96875 4.082031 -15.945312 4.125 -15.90625 C 4.175781 -15.875 4.203125 -15.785156 4.203125 -15.640625 C 4.203125 -15.515625 4.179688 -15.351562 4.140625 -15.15625 L 4.375 -15.09375 C 4.476562 -15.457031 4.609375 -15.75 4.765625 -15.96875 C 4.921875 -16.195312 5.070312 -16.3125 5.21875 -16.3125 C 5.4375 -16.3125 5.570312 -16.023438 5.625 -15.453125 L 5.625 -15.09375 C 5.625 -14.75 5.597656 -14.425781 5.546875 -14.125 C 5.503906 -13.832031 5.453125 -13.539062 5.390625 -13.25 C 5.328125 -12.957031 5.257812 -12.65625 5.1875 -12.34375 C 5.125 -12.039062 5.066406 -11.710938 5.015625 -11.359375 C 5.304688 -11.316406 5.59375 -11.296875 5.875 -11.296875 C 6 -11.296875 6.128906 -11.296875 6.265625 -11.296875 C 6.398438 -11.304688 6.53125 -11.3125 6.65625 -11.3125 C 6.789062 -11.3125 6.929688 -11.363281 7.078125 -11.46875 C 7.222656 -11.582031 7.359375 -11.640625 7.484375 -11.640625 C 7.585938 -11.640625 7.664062 -11.601562 7.71875 -11.53125 C 7.769531 -11.46875 7.796875 -11.394531 7.796875 -11.3125 C 7.554688 -11.25 7.320312 -11.179688 7.09375 -11.109375 C 6.863281 -11.035156 6.640625 -10.96875 6.421875 -10.90625 C 6.640625 -10.925781 6.863281 -10.972656 7.09375 -11.046875 C 7.332031 -11.117188 7.585938 -11.191406 7.859375 -11.265625 C 7.859375 -11.191406 7.859375 -11.128906 7.859375 -11.078125 C 7.867188 -11.023438 7.890625 -10.96875 7.921875 -10.90625 C 7.941406 -10.90625 7.972656 -10.910156 8.015625 -10.921875 C 8.097656 -10.941406 8.144531 -10.953125 8.15625 -10.953125 C 8.289062 -10.890625 8.375 -10.804688 8.40625 -10.703125 C 8.445312 -10.609375 8.46875 -10.503906 8.46875 -10.390625 C 8.46875 -10.296875 8.453125 -10.210938 8.421875 -10.140625 C 8.398438 -10.066406 8.390625 -10 8.390625 -9.9375 Z M 3.125 -2.609375 C 2.9375 -2.960938 2.832031 -3.3125 2.8125 -3.65625 C 2.800781 -4 2.785156 -4.328125 2.765625 -4.640625 L 2.578125 -7.65625 L 2.53125 -7.296875 C 2.53125 -6.410156 2.554688 -5.601562 2.609375 -4.875 C 2.671875 -4.15625 2.765625 -3.597656 2.890625 -3.203125 C 2.890625 -3.078125 2.882812 -2.992188 2.875 -2.953125 C 2.863281 -2.921875 2.859375 -2.890625 2.859375 -2.859375 C 2.859375 -2.835938 2.875 -2.804688 2.90625 -2.765625 C 2.945312 -2.722656 3.019531 -2.671875 3.125 -2.609375 Z M 4.25 -3.6875 C 4.226562 -3.789062 4.21875 -3.898438 4.21875 -4.015625 L 4.21875 -5 C 4.207031 -4.863281 4.191406 -4.734375 4.171875 -4.609375 C 4.160156 -4.484375 4.15625 -4.351562 4.15625 -4.21875 C 4.15625 -3.875 4.175781 -3.609375 4.21875 -3.421875 C 4.257812 -3.265625 4.335938 -3.128906 4.453125 -3.015625 C 4.390625 -3.097656 4.34375 -3.1875 4.3125 -3.28125 C 4.300781 -3.382812 4.28125 -3.519531 4.25 -3.6875 Z M 2.328125 -3.703125 L 2.3125 -3.84375 Z M 4.5 -3 C 4.476562 -3.007812 4.460938 -3.015625 4.453125 -3.015625 C 4.460938 -3.015625 4.476562 -3.007812 4.5 -3 Z M 4.5 -3 "/></g></g></g><g fill="rgb(100%, 100%, 100%)" fill-opacity="1"><g transform="translate(81.814188, 66.760663)"><g><path d="M 8.234375 0.359375 C 7.734375 0.523438 7.347656 0.617188 7.078125 0.640625 C 6.816406 0.660156 6.585938 0.679688 6.390625 0.703125 C 5.640625 0.703125 4.96875 0.5625 4.375 0.28125 C 3.78125 0 3.269531 -0.378906 2.84375 -0.859375 C 2.414062 -1.335938 2.085938 -1.894531 1.859375 -2.53125 C 1.628906 -3.175781 1.515625 -3.863281 1.515625 -4.59375 C 1.515625 -5.019531 1.550781 -5.460938 1.625 -5.921875 C 1.707031 -6.378906 1.828125 -6.828125 1.984375 -7.265625 C 2.148438 -7.710938 2.359375 -8.128906 2.609375 -8.515625 C 2.847656 -8.898438 3.132812 -9.242188 3.46875 -9.546875 C 3.113281 -9.265625 2.816406 -8.929688 2.578125 -8.546875 C 2.328125 -8.160156 2.113281 -7.742188 1.9375 -7.296875 C 1.769531 -6.859375 1.644531 -6.40625 1.5625 -5.9375 C 1.488281 -5.46875 1.453125 -5.015625 1.453125 -4.578125 C 1.453125 -4.015625 1.539062 -3.414062 1.71875 -2.78125 C 1.894531 -2.15625 2.179688 -1.570312 2.578125 -1.03125 C 2.984375 -0.5 3.5 -0.0546875 4.125 0.296875 C 4.757812 0.648438 5.523438 0.828125 6.421875 0.828125 C 6.847656 0.828125 7.289062 0.769531 7.75 0.65625 C 7.25 0.988281 6.6875 1.15625 6.0625 1.15625 C 5.5625 1.15625 5.085938 1.078125 4.640625 0.921875 C 4.203125 0.773438 3.789062 0.5625 3.40625 0.28125 C 3.03125 0.0078125 2.6875 -0.304688 2.375 -0.671875 C 2.070312 -1.046875 1.816406 -1.445312 1.609375 -1.875 L 1.796875 -2.03125 C 1.566406 -2.476562 1.398438 -2.925781 1.296875 -3.375 C 1.203125 -3.832031 1.15625 -4.289062 1.15625 -4.75 C 1.15625 -5.425781 1.25 -6.078125 1.4375 -6.703125 C 1.632812 -7.328125 1.890625 -7.914062 2.203125 -8.46875 L 2.6875 -9.125 C 2.757812 -9.269531 2.875 -9.414062 3.03125 -9.5625 C 3.1875 -9.707031 3.351562 -9.847656 3.53125 -9.984375 C 3.71875 -10.128906 3.914062 -10.257812 4.125 -10.375 C 4.332031 -10.488281 4.53125 -10.59375 4.71875 -10.6875 C 5.195312 -10.925781 5.671875 -11.140625 6.140625 -11.328125 C 6.617188 -11.515625 7.175781 -11.65625 7.8125 -11.75 L 7.734375 -11.8125 C 6.515625 -11.695312 5.476562 -11.398438 4.625 -10.921875 C 3.78125 -10.453125 3.09375 -9.878906 2.5625 -9.203125 C 2.03125 -8.523438 1.644531 -7.785156 1.40625 -6.984375 C 1.164062 -6.179688 1.046875 -5.398438 1.046875 -4.640625 C 1.046875 -4.222656 1.082031 -3.804688 1.15625 -3.390625 C 1.226562 -2.972656 1.335938 -2.554688 1.484375 -2.140625 C 1.160156 -2.941406 1 -3.785156 1 -4.671875 C 1 -5.546875 1.144531 -6.414062 1.4375 -7.28125 C 1.726562 -8.144531 2.179688 -8.941406 2.796875 -9.671875 C 3.597656 -10.398438 4.46875 -10.957031 5.40625 -11.34375 C 6.351562 -11.738281 7.265625 -11.9375 8.140625 -11.9375 C 8.410156 -11.9375 8.691406 -11.890625 8.984375 -11.796875 C 9.273438 -11.703125 9.539062 -11.554688 9.78125 -11.359375 C 10.019531 -11.171875 10.21875 -10.925781 10.375 -10.625 C 10.53125 -10.320312 10.609375 -9.945312 10.609375 -9.5 C 10.609375 -9.144531 10.519531 -8.707031 10.34375 -8.1875 C 10.164062 -7.675781 9.90625 -7.175781 9.5625 -6.6875 C 9.226562 -6.207031 8.8125 -5.796875 8.3125 -5.453125 C 7.8125 -5.117188 7.226562 -4.953125 6.5625 -4.953125 L 5.90625 -4.953125 C 5.414062 -5.054688 4.96875 -5.175781 4.5625 -5.3125 C 4.15625 -5.457031 3.773438 -5.570312 3.421875 -5.65625 C 3.367188 -5.4375 3.335938 -5.226562 3.328125 -5.03125 C 3.328125 -4.84375 3.328125 -4.65625 3.328125 -4.46875 C 3.328125 -4.09375 3.367188 -3.71875 3.453125 -3.34375 C 3.535156 -2.976562 3.671875 -2.644531 3.859375 -2.34375 C 4.046875 -2.039062 4.28125 -1.785156 4.5625 -1.578125 C 4.851562 -1.367188 5.203125 -1.238281 5.609375 -1.1875 C 5.859375 -1.132812 6.078125 -1.101562 6.265625 -1.09375 C 6.453125 -1.09375 6.609375 -1.085938 6.734375 -1.078125 C 6.859375 -1.078125 6.945312 -1.054688 7 -1.015625 C 7.0625 -0.984375 7.09375 -0.921875 7.09375 -0.828125 C 6.96875 -0.796875 6.832031 -0.769531 6.6875 -0.75 C 6.550781 -0.738281 6.410156 -0.734375 6.265625 -0.734375 C 5.796875 -0.734375 5.375 -0.804688 5 -0.953125 C 4.632812 -1.109375 4.320312 -1.285156 4.0625 -1.484375 C 4.363281 -1.179688 4.722656 -0.96875 5.140625 -0.84375 C 5.566406 -0.71875 5.988281 -0.65625 6.40625 -0.65625 C 6.632812 -0.65625 6.863281 -0.675781 7.09375 -0.71875 C 7.070312 -0.632812 7.0625 -0.585938 7.0625 -0.578125 C 7.0625 -0.492188 7.09375 -0.441406 7.15625 -0.421875 C 7.207031 -0.429688 7.300781 -0.460938 7.4375 -0.515625 C 7.570312 -0.578125 7.707031 -0.640625 7.84375 -0.703125 C 7.988281 -0.765625 8.125 -0.816406 8.25 -0.859375 C 8.382812 -0.910156 8.476562 -0.9375 8.53125 -0.9375 C 8.59375 -0.9375 8.648438 -0.925781 8.703125 -0.90625 C 8.765625 -0.882812 8.796875 -0.804688 8.796875 -0.671875 C 8.796875 -0.546875 8.75 -0.390625 8.65625 -0.203125 C 8.5625 -0.015625 8.421875 0.171875 8.234375 0.359375 Z M 5.484375 -7.515625 L 5.921875 -7.4375 C 6.066406 -7.414062 6.203125 -7.40625 6.328125 -7.40625 C 6.460938 -7.40625 6.617188 -7.445312 6.796875 -7.53125 C 6.972656 -7.613281 7.148438 -7.734375 7.328125 -7.890625 C 7.503906 -8.054688 7.660156 -8.253906 7.796875 -8.484375 C 7.941406 -8.722656 8.046875 -9 8.109375 -9.3125 L 8.15625 -9.421875 C 7.96875 -9.421875 7.6875 -9.375 7.3125 -9.28125 C 6.945312 -9.195312 6.5625 -9.078125 6.15625 -8.921875 C 5.757812 -8.765625 5.390625 -8.582031 5.046875 -8.375 C 4.703125 -8.175781 4.46875 -7.957031 4.34375 -7.71875 C 4.539062 -7.675781 4.734375 -7.640625 4.921875 -7.609375 C 5.117188 -7.578125 5.304688 -7.546875 5.484375 -7.515625 Z M 4.578125 -6.046875 C 4.597656 -6.078125 4.613281 -6.117188 4.625 -6.171875 C 4.632812 -6.222656 4.640625 -6.257812 4.640625 -6.28125 L 3.703125 -6.625 L 3.59375 -6.34375 Z M 4.015625 -1.53125 C 3.921875 -1.632812 3.828125 -1.738281 3.734375 -1.84375 C 3.660156 -1.9375 3.597656 -2.03125 3.546875 -2.125 C 3.660156 -1.90625 3.816406 -1.707031 4.015625 -1.53125 Z M 4.015625 -1.53125 "/></g></g></g><g fill="rgb(100%, 100%, 100%)" fill-opacity="1"><g transform="translate(93.215685, 66.760663)"><g><path d="M 4.4375 0.21875 C 4.300781 0.25 4.15625 0.265625 4 0.265625 L 3.421875 0.265625 C 3.078125 0.265625 2.832031 0.300781 2.6875 0.375 C 2.550781 0.457031 2.472656 0.5 2.453125 0.5 L 2.359375 0.140625 L 2.359375 -0.21875 L 2.265625 -2.09375 C 2.242188 -2.445312 2.171875 -2.828125 2.046875 -3.234375 C 1.929688 -3.648438 1.835938 -4.070312 1.765625 -4.5 C 1.722656 -4.769531 1.691406 -5.035156 1.671875 -5.296875 L 1.59375 -6.0625 C 1.5625 -6.332031 1.53125 -6.601562 1.5 -6.875 C 1.46875 -7.15625 1.421875 -7.457031 1.359375 -7.78125 C 1.359375 -7.851562 1.359375 -7.929688 1.359375 -8.015625 C 1.367188 -8.097656 1.375 -8.175781 1.375 -8.25 C 1.375 -8.664062 1.335938 -9.070312 1.265625 -9.46875 C 1.203125 -9.863281 1.113281 -10.253906 1 -10.640625 C 1.09375 -10.679688 1.175781 -10.71875 1.25 -10.75 C 1.332031 -10.78125 1.40625 -10.796875 1.46875 -10.796875 C 1.539062 -10.796875 1.613281 -10.71875 1.6875 -10.5625 C 1.769531 -10.414062 1.859375 -10.101562 1.953125 -9.625 C 1.972656 -9.625 2.007812 -9.632812 2.0625 -9.65625 C 2.113281 -9.675781 2.15625 -9.6875 2.1875 -9.6875 C 2.175781 -9.914062 2.144531 -10.15625 2.09375 -10.40625 C 2.039062 -10.664062 1.984375 -10.914062 1.921875 -11.15625 C 1.867188 -11.394531 1.816406 -11.609375 1.765625 -11.796875 C 1.722656 -11.992188 1.703125 -12.148438 1.703125 -12.265625 C 1.703125 -12.296875 1.707031 -12.332031 1.71875 -12.375 C 1.726562 -12.414062 1.757812 -12.4375 1.8125 -12.4375 C 1.875 -12.4375 1.957031 -12.363281 2.0625 -12.21875 C 2.175781 -12.070312 2.289062 -11.882812 2.40625 -11.65625 C 2.519531 -11.425781 2.632812 -11.179688 2.75 -10.921875 C 2.863281 -10.671875 2.96875 -10.429688 3.0625 -10.203125 C 3.414062 -10.878906 3.820312 -11.390625 4.28125 -11.734375 C 4.738281 -12.085938 5.34375 -12.265625 6.09375 -12.265625 C 6.632812 -12.265625 7.078125 -12.203125 7.421875 -12.078125 C 7.765625 -11.953125 8.03125 -11.8125 8.21875 -11.65625 C 8.414062 -11.507812 8.546875 -11.367188 8.609375 -11.234375 L 8.734375 -11.046875 C 8.734375 -10.960938 8.691406 -10.90625 8.609375 -10.875 C 8.265625 -11.207031 7.875 -11.457031 7.4375 -11.625 C 7 -11.800781 6.550781 -11.890625 6.09375 -11.890625 C 5.632812 -11.890625 5.296875 -11.832031 5.078125 -11.71875 C 4.859375 -11.613281 4.628906 -11.476562 4.390625 -11.3125 C 4.648438 -11.476562 4.882812 -11.609375 5.09375 -11.703125 C 5.320312 -11.785156 5.644531 -11.828125 6.0625 -11.828125 C 6.53125 -11.828125 6.972656 -11.738281 7.390625 -11.5625 C 7.816406 -11.382812 8.1875 -11.15625 8.5 -10.875 C 8.425781 -10.851562 8.363281 -10.820312 8.3125 -10.78125 C 8.269531 -10.75 8.25 -10.703125 8.25 -10.640625 C 8.320312 -10.640625 8.394531 -10.597656 8.46875 -10.515625 C 8.550781 -10.429688 8.625 -10.328125 8.6875 -10.203125 C 8.757812 -10.085938 8.816406 -9.960938 8.859375 -9.828125 C 8.910156 -9.703125 8.9375 -9.601562 8.9375 -9.53125 C 8.9375 -9.300781 8.847656 -9.1875 8.671875 -9.1875 C 8.535156 -9.1875 8.375 -9.234375 8.1875 -9.328125 C 8.15625 -9.335938 8.070312 -9.410156 7.9375 -9.546875 C 7.8125 -9.679688 7.65625 -9.816406 7.46875 -9.953125 C 7.289062 -10.097656 7.082031 -10.226562 6.84375 -10.34375 C 6.601562 -10.457031 6.335938 -10.515625 6.046875 -10.515625 C 5.804688 -10.515625 5.597656 -10.460938 5.421875 -10.359375 C 5.242188 -10.265625 5.082031 -10.132812 4.9375 -9.96875 C 4.789062 -9.800781 4.65625 -9.613281 4.53125 -9.40625 L 4.28125 -8.9375 C 4.476562 -9.289062 4.695312 -9.613281 4.9375 -9.90625 C 5.195312 -10.25 5.523438 -10.421875 5.921875 -10.421875 C 6.265625 -10.421875 6.582031 -10.34375 6.875 -10.1875 C 7.164062 -10.039062 7.40625 -9.851562 7.59375 -9.625 C 7.375 -9.71875 7.109375 -9.8125 6.796875 -9.90625 C 6.492188 -10 6.203125 -10.046875 5.921875 -10.046875 C 5.773438 -10.046875 5.648438 -10.007812 5.546875 -9.9375 C 5.441406 -9.875 5.351562 -9.789062 5.28125 -9.6875 C 5.207031 -9.59375 5.140625 -9.484375 5.078125 -9.359375 C 5.023438 -9.242188 4.960938 -9.132812 4.890625 -9.03125 L 4.640625 -8.984375 C 4.410156 -8.597656 4.222656 -8.148438 4.078125 -7.640625 C 3.941406 -7.128906 3.875 -6.597656 3.875 -6.046875 C 3.875 -5.710938 3.890625 -5.410156 3.921875 -5.140625 C 3.960938 -4.878906 4.015625 -4.613281 4.078125 -4.34375 L 4.3125 -3.71875 L 4.28125 -4.296875 C 4.25 -4.742188 4.21875 -5.144531 4.1875 -5.5 C 4.164062 -5.851562 4.15625 -6.238281 4.15625 -6.65625 C 4.1875 -7.039062 4.238281 -7.40625 4.3125 -7.75 C 4.382812 -8.039062 4.484375 -8.316406 4.609375 -8.578125 C 4.453125 -8.253906 4.347656 -7.890625 4.296875 -7.484375 C 4.234375 -7.023438 4.203125 -6.546875 4.203125 -6.046875 C 4.203125 -5.648438 4.21875 -5.269531 4.25 -4.90625 C 4.289062 -4.550781 4.34375 -4.191406 4.40625 -3.828125 C 4.46875 -3.472656 4.53125 -3.109375 4.59375 -2.734375 C 4.65625 -2.359375 4.707031 -1.941406 4.75 -1.484375 L 4.8125 -1.109375 L 4.9375 0.015625 Z M 4.671875 -8.671875 L 4.609375 -8.578125 Z M 4.671875 -8.671875 "/></g></g></g><g fill="rgb(100%, 100%, 100%)" fill-opacity="1"><g transform="translate(102.149824, 66.760663)"><g><path d="M 7.96875 -5.21875 C 7.613281 -5.21875 7.347656 -5.222656 7.171875 -5.234375 C 6.992188 -5.242188 6.832031 -5.25 6.6875 -5.25 C 6.289062 -5.25 5.9375 -5.226562 5.625 -5.1875 C 5.320312 -5.144531 5.0625 -5.066406 4.84375 -4.953125 C 4.632812 -4.835938 4.476562 -4.664062 4.375 -4.4375 C 4.269531 -4.207031 4.21875 -3.910156 4.21875 -3.546875 C 4.21875 -2.992188 4.28125 -2.585938 4.40625 -2.328125 C 4.53125 -2.078125 4.707031 -1.894531 4.9375 -1.78125 C 5.175781 -1.664062 5.457031 -1.59375 5.78125 -1.5625 C 6.113281 -1.539062 6.488281 -1.484375 6.90625 -1.390625 C 7.144531 -1.367188 7.378906 -1.351562 7.609375 -1.34375 C 7.847656 -1.332031 8.085938 -1.328125 8.328125 -1.328125 L 9.765625 -1.328125 C 9.097656 -1.367188 8.4375 -1.390625 7.78125 -1.390625 C 7.125 -1.398438 6.535156 -1.457031 6.015625 -1.5625 C 5.492188 -1.675781 5.066406 -1.863281 4.734375 -2.125 C 4.410156 -2.394531 4.25 -2.800781 4.25 -3.34375 C 4.25 -3.78125 4.304688 -4.113281 4.421875 -4.34375 C 4.535156 -4.570312 4.6875 -4.742188 4.875 -4.859375 C 5.070312 -4.972656 5.300781 -5.039062 5.5625 -5.0625 C 5.832031 -5.082031 6.117188 -5.09375 6.421875 -5.09375 C 6.796875 -5.09375 7.175781 -5.070312 7.5625 -5.03125 C 7.25 -4.9375 6.9375 -4.863281 6.625 -4.8125 C 6.320312 -4.769531 6.035156 -4.722656 5.765625 -4.671875 C 5.503906 -4.628906 5.273438 -4.570312 5.078125 -4.5 C 4.890625 -4.425781 4.757812 -4.328125 4.6875 -4.203125 L 4.6875 -3.296875 L 4.53125 -3.21875 C 4.582031 -2.882812 4.628906 -2.632812 4.671875 -2.46875 C 4.722656 -2.3125 4.851562 -2.1875 5.0625 -2.09375 C 5.28125 -2.007812 5.625 -1.941406 6.09375 -1.890625 C 6.5625 -1.835938 7.25 -1.75 8.15625 -1.625 L 9.59375 -1.625 C 9.84375 -1.625 9.988281 -1.632812 10.03125 -1.65625 C 10.082031 -1.675781 10.113281 -1.6875 10.125 -1.6875 L 9.9375 -2.765625 C 9.914062 -3.023438 9.882812 -3.257812 9.84375 -3.46875 C 9.800781 -3.6875 9.75 -3.914062 9.6875 -4.15625 C 9.675781 -4.113281 9.632812 -4.09375 9.5625 -4.09375 C 9.632812 -3.875 9.691406 -3.632812 9.734375 -3.375 C 9.785156 -3.125 9.828125 -2.882812 9.859375 -2.65625 C 9.890625 -2.4375 9.914062 -2.242188 9.9375 -2.078125 C 9.957031 -1.921875 9.976562 -1.832031 10 -1.8125 L 9.890625 -1.765625 C 9.859375 -1.753906 9.816406 -1.75 9.765625 -1.75 L 9.640625 -1.75 C 9.546875 -1.75 9.441406 -1.757812 9.328125 -1.78125 C 9.210938 -1.800781 9.0625 -1.8125 8.875 -1.8125 L 8.21875 -1.8125 C 7.695312 -1.8125 7.21875 -1.835938 6.78125 -1.890625 C 6.375 -1.941406 6.015625 -2.007812 5.703125 -2.09375 C 6.015625 -2.019531 6.390625 -1.960938 6.828125 -1.921875 C 7.285156 -1.867188 7.710938 -1.84375 8.109375 -1.84375 C 8.285156 -1.84375 8.46875 -1.847656 8.65625 -1.859375 C 8.851562 -1.867188 9.0625 -1.875 9.28125 -1.875 L 9.9375 -1.875 C 9.90625 -1.90625 9.863281 -1.921875 9.8125 -1.921875 L 9.765625 -1.921875 C 9.710938 -2.835938 9.59375 -3.710938 9.40625 -4.546875 C 9.21875 -5.390625 8.914062 -6.125 8.5 -6.75 C 8.09375 -7.382812 7.554688 -7.890625 6.890625 -8.265625 C 6.234375 -8.640625 5.410156 -8.828125 4.421875 -8.828125 C 4.140625 -8.828125 3.859375 -8.804688 3.578125 -8.765625 C 3.296875 -8.734375 3.007812 -8.679688 2.71875 -8.609375 C 2.75 -8.640625 2.765625 -8.664062 2.765625 -8.6875 C 2.765625 -8.757812 2.738281 -8.820312 2.6875 -8.875 C 2.632812 -8.9375 2.609375 -9 2.609375 -9.0625 C 2.609375 -9.144531 2.691406 -9.222656 2.859375 -9.296875 C 3.023438 -9.367188 3.378906 -9.4375 3.921875 -9.5 C 3.890625 -9.53125 3.867188 -9.570312 3.859375 -9.625 C 3.859375 -9.675781 3.859375 -9.71875 3.859375 -9.75 C 3.140625 -9.75 2.582031 -9.765625 2.1875 -9.796875 C 1.789062 -9.828125 1.59375 -9.921875 1.59375 -10.078125 C 1.59375 -10.148438 1.675781 -10.242188 1.84375 -10.359375 C 2.007812 -10.484375 2.242188 -10.597656 2.546875 -10.703125 C 2.847656 -10.816406 3.210938 -10.914062 3.640625 -11 C 4.078125 -11.09375 4.5625 -11.140625 5.09375 -11.140625 C 6.113281 -11.140625 6.988281 -10.984375 7.71875 -10.671875 C 8.445312 -10.359375 9.054688 -9.945312 9.546875 -9.4375 C 10.046875 -8.925781 10.453125 -8.34375 10.765625 -7.6875 C 11.078125 -7.039062 11.328125 -6.390625 11.515625 -5.734375 C 11.710938 -5.078125 11.859375 -4.441406 11.953125 -3.828125 C 12.046875 -3.210938 12.132812 -2.679688 12.21875 -2.234375 C 12.21875 -2.148438 12.21875 -2.066406 12.21875 -1.984375 C 12.226562 -1.910156 12.234375 -1.816406 12.234375 -1.703125 C 12.234375 -1.328125 12.160156 -0.992188 12.015625 -0.703125 C 11.878906 -0.421875 11.6875 -0.1875 11.4375 0 C 11.195312 0.195312 10.914062 0.34375 10.59375 0.4375 C 10.269531 0.539062 9.921875 0.59375 9.546875 0.59375 C 9.253906 0.59375 8.875 0.585938 8.40625 0.578125 C 7.945312 0.566406 7.503906 0.523438 7.078125 0.453125 C 6.796875 0.390625 6.488281 0.34375 6.15625 0.3125 C 5.832031 0.28125 5.5 0.222656 5.15625 0.140625 C 4.8125 0.0546875 4.472656 -0.0546875 4.140625 -0.203125 C 3.816406 -0.347656 3.523438 -0.566406 3.265625 -0.859375 C 3.015625 -1.160156 2.8125 -1.550781 2.65625 -2.03125 C 2.5 -2.507812 2.421875 -3.113281 2.421875 -3.84375 C 2.421875 -4.53125 2.578125 -5.082031 2.890625 -5.5 C 3.210938 -5.914062 3.597656 -6.238281 4.046875 -6.46875 C 4.492188 -6.707031 4.945312 -6.863281 5.40625 -6.9375 C 5.875 -7.007812 6.253906 -7.046875 6.546875 -7.046875 C 6.910156 -7.046875 7.148438 -7.015625 7.265625 -6.953125 C 7.390625 -6.898438 7.453125 -6.847656 7.453125 -6.796875 C 7.453125 -6.765625 7.445312 -6.734375 7.4375 -6.703125 C 7.101562 -6.703125 6.675781 -6.6875 6.15625 -6.65625 C 5.644531 -6.632812 5.144531 -6.550781 4.65625 -6.40625 C 4.175781 -6.257812 3.765625 -6.035156 3.421875 -5.734375 C 3.078125 -5.441406 2.90625 -5.019531 2.90625 -4.46875 C 3.019531 -4.96875 3.21875 -5.359375 3.5 -5.640625 C 3.789062 -5.921875 4.117188 -6.128906 4.484375 -6.265625 C 4.859375 -6.410156 5.238281 -6.5 5.625 -6.53125 C 6.019531 -6.5625 6.378906 -6.578125 6.703125 -6.578125 L 7.375 -6.578125 C 7.320312 -6.523438 7.296875 -6.472656 7.296875 -6.421875 C 7.296875 -6.367188 7.320312 -6.320312 7.375 -6.28125 L 8.15625 -6.28125 C 8.363281 -6.238281 8.515625 -6.164062 8.609375 -6.0625 C 8.703125 -5.96875 8.75 -5.882812 8.75 -5.8125 C 8.75 -5.6875 8.6875 -5.578125 8.5625 -5.484375 C 8.445312 -5.390625 8.25 -5.300781 7.96875 -5.21875 Z M 4.640625 -0.390625 C 5.003906 -0.242188 5.378906 -0.128906 5.765625 -0.046875 C 6.160156 0.0234375 6.550781 0.0703125 6.9375 0.09375 C 7.320312 0.132812 7.679688 0.15625 8.015625 0.15625 C 7.753906 0.132812 7.488281 0.0859375 7.21875 0.015625 C 6.9375 -0.046875 6.691406 -0.101562 6.484375 -0.15625 C 6.253906 -0.207031 6.03125 -0.242188 5.8125 -0.265625 C 5.59375 -0.285156 5.367188 -0.316406 5.140625 -0.359375 C 4.910156 -0.398438 4.675781 -0.460938 4.4375 -0.546875 C 4.195312 -0.628906 3.957031 -0.757812 3.71875 -0.9375 C 3.96875 -0.707031 4.273438 -0.523438 4.640625 -0.390625 Z M 4.828125 -2.484375 C 4.816406 -2.492188 4.859375 -2.453125 4.953125 -2.359375 C 5.035156 -2.285156 5.140625 -2.226562 5.265625 -2.1875 C 5.203125 -2.21875 5.101562 -2.25 4.96875 -2.28125 C 4.820312 -2.332031 4.75 -2.414062 4.75 -2.53125 Z M 5.328125 -2.1875 C 5.316406 -2.1875 5.296875 -2.1875 5.265625 -2.1875 C 5.285156 -2.1875 5.304688 -2.1875 5.328125 -2.1875 Z M 5.328125 -2.1875 "/></g></g></g><g fill="rgb(100%, 100%, 100%)" fill-opacity="1"><g transform="translate(115.680399, 66.760663)"><g><path d="M 10.4375 -1.046875 C 9.851562 -0.816406 9.253906 -0.632812 8.640625 -0.5 C 8.023438 -0.363281 7.398438 -0.296875 6.765625 -0.296875 C 6.179688 -0.296875 5.609375 -0.363281 5.046875 -0.5 C 4.492188 -0.632812 3.984375 -0.847656 3.515625 -1.140625 C 3.054688 -1.429688 2.648438 -1.8125 2.296875 -2.28125 C 1.941406 -2.75 1.671875 -3.316406 1.484375 -3.984375 C 1.523438 -3.398438 1.6875 -2.894531 1.96875 -2.46875 C 2.25 -2.050781 2.597656 -1.691406 3.015625 -1.390625 C 3.429688 -1.097656 3.890625 -0.859375 4.390625 -0.671875 C 4.898438 -0.484375 5.382812 -0.332031 5.84375 -0.21875 C 5.914062 -0.207031 6.007812 -0.203125 6.125 -0.203125 C 6.90625 -0.203125 7.613281 -0.265625 8.25 -0.390625 C 8.882812 -0.523438 9.535156 -0.664062 10.203125 -0.8125 C 9.992188 -0.644531 9.738281 -0.492188 9.4375 -0.359375 C 9.132812 -0.234375 8.804688 -0.128906 8.453125 -0.046875 C 8.109375 0.0351562 7.742188 0.0976562 7.359375 0.140625 C 6.972656 0.191406 6.585938 0.21875 6.203125 0.21875 L 5.984375 0.21875 C 5.921875 0.21875 5.851562 0.210938 5.78125 0.203125 L 5.65625 -0.0625 C 5.175781 -0.113281 4.675781 -0.234375 4.15625 -0.421875 C 3.632812 -0.609375 3.160156 -0.867188 2.734375 -1.203125 C 2.304688 -1.535156 1.945312 -1.945312 1.65625 -2.4375 C 1.375 -2.9375 1.234375 -3.507812 1.234375 -4.15625 C 1.234375 -4.695312 1.304688 -5.226562 1.453125 -5.75 C 1.597656 -6.269531 1.789062 -6.773438 2.03125 -7.265625 C 2.019531 -7.242188 2 -7.234375 1.96875 -7.234375 C 1.925781 -7.234375 1.90625 -7.257812 1.90625 -7.3125 C 1.664062 -6.84375 1.460938 -6.351562 1.296875 -5.84375 C 1.128906 -5.332031 1.046875 -4.773438 1.046875 -4.171875 C 1.046875 -3.535156 1.191406 -2.972656 1.484375 -2.484375 C 1.773438 -1.992188 2.125 -1.578125 2.53125 -1.234375 C 2.9375 -0.898438 3.351562 -0.628906 3.78125 -0.421875 C 4.164062 -0.234375 4.484375 -0.0976562 4.734375 -0.015625 C 4.328125 -0.140625 3.910156 -0.3125 3.484375 -0.53125 C 3.023438 -0.769531 2.613281 -1.070312 2.25 -1.4375 C 1.882812 -1.800781 1.582031 -2.222656 1.34375 -2.703125 C 1.113281 -3.191406 1 -3.726562 1 -4.3125 C 1 -5.144531 1.148438 -5.925781 1.453125 -6.65625 C 1.753906 -7.382812 2.15625 -8.019531 2.65625 -8.5625 C 3.164062 -9.101562 3.75 -9.523438 4.40625 -9.828125 C 5.0625 -10.140625 5.738281 -10.296875 6.4375 -10.296875 C 6.5625 -10.328125 6.710938 -10.34375 6.890625 -10.34375 C 7.066406 -10.351562 7.21875 -10.359375 7.34375 -10.359375 C 7.757812 -10.265625 8.179688 -10.148438 8.609375 -10.015625 C 9.046875 -9.890625 9.476562 -9.707031 9.90625 -9.46875 C 9.851562 -9.4375 9.816406 -9.394531 9.796875 -9.34375 C 9.773438 -9.300781 9.753906 -9.25 9.734375 -9.1875 C 9.722656 -9.132812 9.703125 -9.085938 9.671875 -9.046875 C 9.640625 -9.003906 9.582031 -8.984375 9.5 -8.984375 C 9.4375 -8.984375 9.335938 -9.003906 9.203125 -9.046875 C 9.078125 -9.085938 8.894531 -9.148438 8.65625 -9.234375 C 8.613281 -9.191406 8.59375 -9.128906 8.59375 -9.046875 C 8.90625 -8.890625 9.117188 -8.707031 9.234375 -8.5 C 9.359375 -8.289062 9.421875 -8.097656 9.421875 -7.921875 C 9.421875 -7.828125 9.320312 -7.742188 9.125 -7.671875 C 8.957031 -7.671875 8.691406 -7.703125 8.328125 -7.765625 C 7.960938 -7.835938 7.550781 -7.875 7.09375 -7.875 C 6.894531 -7.875 6.675781 -7.863281 6.4375 -7.84375 C 6.207031 -7.820312 5.972656 -7.78125 5.734375 -7.71875 C 5.492188 -7.664062 5.265625 -7.582031 5.046875 -7.46875 C 4.835938 -7.351562 4.664062 -7.203125 4.53125 -7.015625 C 4.375 -6.804688 4.226562 -6.566406 4.09375 -6.296875 C 3.96875 -6.035156 3.847656 -5.769531 3.734375 -5.5 C 3.628906 -5.226562 3.546875 -4.96875 3.484375 -4.71875 C 3.429688 -4.46875 3.40625 -4.238281 3.40625 -4.03125 C 3.40625 -3.851562 3.488281 -3.644531 3.65625 -3.40625 C 3.832031 -3.175781 4.054688 -2.957031 4.328125 -2.75 C 4.597656 -2.550781 4.90625 -2.378906 5.25 -2.234375 C 5.601562 -2.085938 5.960938 -2.015625 6.328125 -2.015625 C 6.492188 -2.015625 6.695312 -2.039062 6.9375 -2.09375 C 7.1875 -2.144531 7.441406 -2.207031 7.703125 -2.28125 C 7.960938 -2.351562 8.21875 -2.414062 8.46875 -2.46875 C 8.71875 -2.519531 8.929688 -2.546875 9.109375 -2.546875 C 9.265625 -2.546875 9.363281 -2.53125 9.40625 -2.5 C 9.457031 -2.46875 9.484375 -2.40625 9.484375 -2.3125 C 9.179688 -2.195312 8.863281 -2.085938 8.53125 -1.984375 C 8.320312 -1.921875 8.117188 -1.859375 7.921875 -1.796875 L 8.53125 -1.953125 C 8.851562 -2.046875 9.171875 -2.144531 9.484375 -2.25 C 9.484375 -2.175781 9.484375 -2.113281 9.484375 -2.0625 C 9.492188 -2.007812 9.535156 -1.953125 9.609375 -1.890625 L 9.8125 -1.96875 C 9.914062 -2.007812 10.023438 -2.0625 10.140625 -2.125 C 10.410156 -2.125 10.59375 -2.097656 10.6875 -2.046875 C 10.789062 -1.992188 10.84375 -1.914062 10.84375 -1.8125 C 10.84375 -1.738281 10.832031 -1.679688 10.8125 -1.640625 C 10.789062 -1.597656 10.765625 -1.550781 10.734375 -1.5 C 10.703125 -1.457031 10.65625 -1.398438 10.59375 -1.328125 C 10.539062 -1.265625 10.488281 -1.171875 10.4375 -1.046875 Z M 3.21875 -3.4375 C 3.320312 -3.195312 3.476562 -2.96875 3.6875 -2.75 C 3.90625 -2.53125 4.148438 -2.335938 4.421875 -2.171875 C 4.691406 -2.003906 4.984375 -1.867188 5.296875 -1.765625 C 5.585938 -1.660156 5.878906 -1.601562 6.171875 -1.59375 C 5.898438 -1.613281 5.617188 -1.679688 5.328125 -1.796875 C 5.023438 -1.898438 4.738281 -2.035156 4.46875 -2.203125 C 4.195312 -2.367188 3.953125 -2.554688 3.734375 -2.765625 C 3.515625 -2.972656 3.34375 -3.195312 3.21875 -3.4375 Z M 7.796875 -1.765625 C 7.835938 -1.785156 7.878906 -1.796875 7.921875 -1.796875 C 7.878906 -1.796875 7.835938 -1.785156 7.796875 -1.765625 Z M 4.8125 0 C 4.789062 0 4.765625 -0.00390625 4.734375 -0.015625 C 4.765625 -0.00390625 4.789062 0 4.8125 0 Z M 4.8125 0 "/></g></g></g><g fill="rgb(100%, 100%, 100%)" fill-opacity="1"><g transform="translate(127.121695, 66.760663)"><g><path d="M 8.390625 -9.9375 C 8.273438 -9.9375 8.113281 -9.914062 7.90625 -9.875 C 7.695312 -9.84375 7.488281 -9.800781 7.28125 -9.75 C 7.082031 -9.695312 6.898438 -9.640625 6.734375 -9.578125 C 6.566406 -9.523438 6.460938 -9.488281 6.421875 -9.46875 C 6.765625 -9.519531 7.082031 -9.582031 7.375 -9.65625 C 7.664062 -9.726562 7.984375 -9.765625 8.328125 -9.765625 C 8.265625 -9.648438 8.179688 -9.554688 8.078125 -9.484375 C 7.972656 -9.421875 7.851562 -9.367188 7.71875 -9.328125 C 7.59375 -9.296875 7.457031 -9.269531 7.3125 -9.25 C 7.164062 -9.238281 7.015625 -9.210938 6.859375 -9.171875 L 6.71875 -9.34375 C 6.46875 -9.25 6.273438 -9.191406 6.140625 -9.171875 C 6.015625 -9.160156 5.878906 -9.15625 5.734375 -9.15625 C 5.566406 -9.15625 5.398438 -9.15625 5.234375 -9.15625 C 5.078125 -9.164062 4.894531 -9.171875 4.6875 -9.171875 C 4.6875 -9.097656 4.679688 -9.046875 4.671875 -9.015625 C 4.972656 -9.015625 5.226562 -9.015625 5.4375 -9.015625 C 5.65625 -9.023438 5.914062 -9.050781 6.21875 -9.09375 C 5.925781 -9.039062 5.671875 -9 5.453125 -8.96875 C 5.234375 -8.945312 4.972656 -8.9375 4.671875 -8.9375 C 4.617188 -8.625 4.570312 -8.320312 4.53125 -8.03125 C 4.488281 -7.738281 4.46875 -7.457031 4.46875 -7.1875 C 4.46875 -7.019531 4.472656 -6.832031 4.484375 -6.625 C 4.503906 -6.414062 4.523438 -6.203125 4.546875 -5.984375 C 4.566406 -5.765625 4.582031 -5.554688 4.59375 -5.359375 C 4.601562 -5.171875 4.609375 -5.03125 4.609375 -4.9375 L 4.609375 -3.734375 C 4.679688 -3.472656 4.875 -3.273438 5.1875 -3.140625 C 5.507812 -3.003906 5.96875 -2.9375 6.5625 -2.9375 L 7.203125 -2.9375 C 7.421875 -2.9375 7.570312 -2.910156 7.65625 -2.859375 C 7.75 -2.816406 7.796875 -2.757812 7.796875 -2.6875 C 7.796875 -2.613281 7.742188 -2.570312 7.640625 -2.5625 C 7.535156 -2.5625 7.425781 -2.5625 7.3125 -2.5625 C 6.9375 -2.5625 6.535156 -2.585938 6.109375 -2.640625 C 5.710938 -2.691406 5.320312 -2.753906 4.9375 -2.828125 C 5.320312 -2.734375 5.722656 -2.644531 6.140625 -2.5625 C 6.578125 -2.5 7.003906 -2.46875 7.421875 -2.46875 L 7.59375 -2.46875 C 7.644531 -2.46875 7.707031 -2.472656 7.78125 -2.484375 C 7.78125 -2.421875 7.78125 -2.363281 7.78125 -2.3125 C 7.789062 -2.257812 7.8125 -2.195312 7.84375 -2.125 L 8 -2.171875 C 8.039062 -2.179688 8.085938 -2.1875 8.140625 -2.1875 C 8.191406 -2.195312 8.226562 -2.21875 8.25 -2.25 C 8.675781 -2.207031 8.890625 -2.0625 8.890625 -1.8125 C 8.890625 -1.664062 8.847656 -1.546875 8.765625 -1.453125 C 8.691406 -1.359375 8.59375 -1.285156 8.46875 -1.234375 C 8.351562 -1.179688 8.222656 -1.144531 8.078125 -1.125 C 7.929688 -1.101562 7.789062 -1.09375 7.65625 -1.09375 C 7.195312 -1.09375 6.742188 -1.117188 6.296875 -1.171875 C 5.847656 -1.234375 5.414062 -1.300781 5 -1.375 C 5.363281 -1.238281 5.832031 -1.128906 6.40625 -1.046875 C 6.976562 -0.972656 7.554688 -0.9375 8.140625 -0.9375 C 7.992188 -0.84375 7.816406 -0.769531 7.609375 -0.71875 C 7.410156 -0.664062 7.207031 -0.640625 7 -0.640625 L 5.5625 -0.8125 C 5.382812 -0.84375 5.242188 -0.867188 5.140625 -0.890625 C 5.046875 -0.921875 4.953125 -0.953125 4.859375 -0.984375 C 4.765625 -1.015625 4.660156 -1.050781 4.546875 -1.09375 C 4.429688 -1.132812 4.273438 -1.179688 4.078125 -1.234375 L 4.078125 -1.453125 C 3.734375 -1.546875 3.453125 -1.703125 3.234375 -1.921875 C 3.023438 -2.148438 2.859375 -2.394531 2.734375 -2.65625 C 2.617188 -2.925781 2.539062 -3.195312 2.5 -3.46875 C 2.46875 -3.738281 2.453125 -3.984375 2.453125 -4.203125 C 2.453125 -4.421875 2.453125 -4.625 2.453125 -4.8125 C 2.460938 -5.007812 2.46875 -5.207031 2.46875 -5.40625 C 2.46875 -5.550781 2.460938 -5.738281 2.453125 -5.96875 C 2.453125 -6.195312 2.441406 -6.4375 2.421875 -6.6875 C 2.410156 -6.9375 2.398438 -7.191406 2.390625 -7.453125 C 2.390625 -7.722656 2.390625 -7.976562 2.390625 -8.21875 C 2.390625 -8.363281 2.390625 -8.5 2.390625 -8.625 C 2.398438 -8.757812 2.410156 -8.878906 2.421875 -8.984375 L 2.234375 -8.984375 C 2.210938 -8.890625 2.203125 -8.785156 2.203125 -8.671875 L 2.203125 -8.3125 C 2.203125 -7.925781 2.207031 -7.546875 2.21875 -7.171875 C 2.238281 -6.796875 2.25 -6.445312 2.25 -6.125 C 2.257812 -5.8125 2.269531 -5.535156 2.28125 -5.296875 C 2.300781 -5.066406 2.3125 -4.898438 2.3125 -4.796875 L 2.3125 -3.84375 C 2.269531 -4.195312 2.226562 -4.707031 2.1875 -5.375 C 2.144531 -6.144531 2.125 -6.992188 2.125 -7.921875 L 2.125 -8.28125 C 2.125 -8.425781 2.125 -8.5625 2.125 -8.6875 C 2.132812 -8.820312 2.15625 -8.921875 2.1875 -8.984375 L 1.515625 -9.03125 C 1.367188 -9.125 1.222656 -9.195312 1.078125 -9.25 C 0.929688 -9.300781 0.796875 -9.328125 0.671875 -9.328125 L 0.671875 -9.71875 C 0.671875 -9.800781 0.679688 -9.875 0.703125 -9.9375 C 0.722656 -10 0.785156 -10.03125 0.890625 -10.03125 C 0.921875 -10.03125 0.988281 -10.015625 1.09375 -9.984375 L 1.09375 -10.21875 C 0.945312 -10.300781 0.828125 -10.410156 0.734375 -10.546875 C 0.640625 -10.691406 0.59375 -10.835938 0.59375 -10.984375 C 0.59375 -11.328125 0.835938 -11.5 1.328125 -11.5 C 1.515625 -11.5 1.707031 -11.484375 1.90625 -11.453125 C 2.101562 -11.429688 2.3125 -11.410156 2.53125 -11.390625 C 2.582031 -11.679688 2.625 -11.941406 2.65625 -12.171875 C 2.695312 -12.410156 2.738281 -12.640625 2.78125 -12.859375 C 2.820312 -13.078125 2.867188 -13.296875 2.921875 -13.515625 C 2.972656 -13.734375 3.039062 -13.960938 3.125 -14.203125 C 3.238281 -14.460938 3.328125 -14.75 3.390625 -15.0625 C 3.460938 -15.375 3.515625 -15.679688 3.546875 -15.984375 L 3.953125 -15.96875 C 4.023438 -15.96875 4.082031 -15.945312 4.125 -15.90625 C 4.175781 -15.875 4.203125 -15.785156 4.203125 -15.640625 C 4.203125 -15.515625 4.179688 -15.351562 4.140625 -15.15625 L 4.375 -15.09375 C 4.476562 -15.457031 4.609375 -15.75 4.765625 -15.96875 C 4.921875 -16.195312 5.070312 -16.3125 5.21875 -16.3125 C 5.4375 -16.3125 5.570312 -16.023438 5.625 -15.453125 L 5.625 -15.09375 C 5.625 -14.75 5.597656 -14.425781 5.546875 -14.125 C 5.503906 -13.832031 5.453125 -13.539062 5.390625 -13.25 C 5.328125 -12.957031 5.257812 -12.65625 5.1875 -12.34375 C 5.125 -12.039062 5.066406 -11.710938 5.015625 -11.359375 C 5.304688 -11.316406 5.59375 -11.296875 5.875 -11.296875 C 6 -11.296875 6.128906 -11.296875 6.265625 -11.296875 C 6.398438 -11.304688 6.53125 -11.3125 6.65625 -11.3125 C 6.789062 -11.3125 6.929688 -11.363281 7.078125 -11.46875 C 7.222656 -11.582031 7.359375 -11.640625 7.484375 -11.640625 C 7.585938 -11.640625 7.664062 -11.601562 7.71875 -11.53125 C 7.769531 -11.46875 7.796875 -11.394531 7.796875 -11.3125 C 7.554688 -11.25 7.320312 -11.179688 7.09375 -11.109375 C 6.863281 -11.035156 6.640625 -10.96875 6.421875 -10.90625 C 6.640625 -10.925781 6.863281 -10.972656 7.09375 -11.046875 C 7.332031 -11.117188 7.585938 -11.191406 7.859375 -11.265625 C 7.859375 -11.191406 7.859375 -11.128906 7.859375 -11.078125 C 7.867188 -11.023438 7.890625 -10.96875 7.921875 -10.90625 C 7.941406 -10.90625 7.972656 -10.910156 8.015625 -10.921875 C 8.097656 -10.941406 8.144531 -10.953125 8.15625 -10.953125 C 8.289062 -10.890625 8.375 -10.804688 8.40625 -10.703125 C 8.445312 -10.609375 8.46875 -10.503906 8.46875 -10.390625 C 8.46875 -10.296875 8.453125 -10.210938 8.421875 -10.140625 C 8.398438 -10.066406 8.390625 -10 8.390625 -9.9375 Z M 3.125 -2.609375 C 2.9375 -2.960938 2.832031 -3.3125 2.8125 -3.65625 C 2.800781 -4 2.785156 -4.328125 2.765625 -4.640625 L 2.578125 -7.65625 L 2.53125 -7.296875 C 2.53125 -6.410156 2.554688 -5.601562 2.609375 -4.875 C 2.671875 -4.15625 2.765625 -3.597656 2.890625 -3.203125 C 2.890625 -3.078125 2.882812 -2.992188 2.875 -2.953125 C 2.863281 -2.921875 2.859375 -2.890625 2.859375 -2.859375 C 2.859375 -2.835938 2.875 -2.804688 2.90625 -2.765625 C 2.945312 -2.722656 3.019531 -2.671875 3.125 -2.609375 Z M 4.25 -3.6875 C 4.226562 -3.789062 4.21875 -3.898438 4.21875 -4.015625 L 4.21875 -5 C 4.207031 -4.863281 4.191406 -4.734375 4.171875 -4.609375 C 4.160156 -4.484375 4.15625 -4.351562 4.15625 -4.21875 C 4.15625 -3.875 4.175781 -3.609375 4.21875 -3.421875 C 4.257812 -3.265625 4.335938 -3.128906 4.453125 -3.015625 C 4.390625 -3.097656 4.34375 -3.1875 4.3125 -3.28125 C 4.300781 -3.382812 4.28125 -3.519531 4.25 -3.6875 Z M 2.328125 -3.703125 L 2.3125 -3.84375 Z M 4.5 -3 C 4.476562 -3.007812 4.460938 -3.015625 4.453125 -3.015625 C 4.460938 -3.015625 4.476562 -3.007812 4.5 -3 Z M 4.5 -3 "/></g></g></g></svg>