<svg xmlns="http://www.w3.org/2000/svg" xmlns:xlink="http://www.w3.org/1999/xlink" width="85" zoomAndPan="magnify" viewBox="0 0 63.75 63.749998" height="85" preserveAspectRatio="xMidYMid meet" version="1.0"><defs><clipPath id="id1"><path d="M 0 0 L 63.5 0 L 63.5 63.5 L 0 63.5 Z M 0 0 " clip-rule="nonzero"/></clipPath><clipPath id="id2"><path d="M 0 0 L 53 0 L 53 63.5 L 0 63.5 Z M 0 0 " clip-rule="nonzero"/></clipPath><clipPath id="id3"><path d="M 0 0 L 63.5 0 L 63.5 63.5 L 0 63.5 Z M 0 0 " clip-rule="nonzero"/></clipPath><clipPath id="id4"><path d="M 11 0 L 63.5 0 L 63.5 63.5 L 11 63.5 Z M 11 0 " clip-rule="nonzero"/></clipPath></defs><g clip-path="url(#id1)"><path stroke-linecap="round" transform="matrix(5.103838, -4.352439, 4.379904, 5.136043, 5.005342, 31.832299)" fill="none" stroke-linejoin="miter" d="M 0.500135 0.000147428 L 5.314231 0.000135241 " stroke="rgb(100%, 100%, 100%)" stroke-width="1" stroke-opacity="1" stroke-miterlimit="4"/></g><g clip-path="url(#id2)"><path stroke-linecap="round" transform="matrix(0.0059536, -6.662773, 6.749997, 0.00603154, 14.158453, 59.947143)" fill="none" stroke-linejoin="miter" d="M 0.499785 -0.000188535 L 3.66511 -0.0000868793 " stroke="rgb(100%, 100%, 100%)" stroke-width="1" stroke-opacity="1" stroke-miterlimit="4"/></g><path stroke-linecap="round" transform="matrix(-6.694843, -0.00000000000000082, 0.000000000000000827, -6.749999, 52.399882, 56.553226)" fill="none" stroke-linejoin="miter" d="M 0.500251 -0.000216563 L 5.66339 -0.000216563 " stroke="rgb(100%, 100%, 100%)" stroke-width="1" stroke-opacity="1" stroke-miterlimit="4"/><g clip-path="url(#id3)"><path stroke-linecap="round" transform="matrix(-5.103902, -4.341847, 4.37369, -5.141335, 58.737904, 30.385421)" fill="none" stroke-linejoin="miter" d="M 0.499791 0.000109508 L 4.985963 -0.000222725 " stroke="rgb(100%, 100%, 100%)" stroke-width="1" stroke-opacity="1" stroke-miterlimit="4"/></g><g clip-path="url(#id4)"><path stroke-linecap="round" transform="matrix(-0.0402656, -6.668214, 6.749876, -0.0407587, 50.177562, 59.924982)" fill="none" stroke-linejoin="miter" d="M 0.500156 -0.000173739 L 3.662311 0.000170852 " stroke="rgb(100%, 100%, 100%)" stroke-width="1" stroke-opacity="1" stroke-miterlimit="4"/></g></svg>